<svg width="51" height="51" fill="none" xmlns="http://www.w3.org/2000/svg"><g clip-path="url(#clip0)"><path d="M8.9 39.1c-.7 0-1.4.2-2 .5C3.7 35.5 2 30.5 2 25.3 2 12.4 12.4 2 25.3 2c1.6 0 3.1.2 4.6.5.5.1 1.1-.2 1.2-.8.1-.5-.2-1.1-.8-1.2-1.6-.3-3.3-.5-5-.5-6.8 0-13.1 2.6-17.9 7.4C2.6 12.2 0 18.5 0 25.3 0 31 1.9 36.5 5.4 41c-.5.7-.7 1.5-.7 2.3 0 1.1.4 2.1 1.2 2.9.8.8 1.8 1.2 2.9 1.2 1.1 0 2.1-.4 2.9-1.2.8-.8 1.2-1.8 1.2-2.9 0-1.1-.4-2.1-1.2-2.9-.7-.9-1.7-1.3-2.8-1.3zm1.5 5.7c-.4.4-1 .6-1.5.6s-1.1-.2-1.5-.6c-.4-.4-.6-1-.6-1.5 0-.6.2-1.1.6-1.5.4-.4 1-.6 1.5-.6s1.1.2 1.5.6c.4.4.6 1 .6 1.5.1.5-.2 1.1-.6 1.5z" fill="#005B96"/><path d="M45.1 9.6c1.1-1.6.9-3.8-.5-5.2-.8-.8-1.8-1.2-2.9-1.2-1.1 0-2.1.4-2.9 1.2-.8.8-1.2 1.8-1.2 2.9 0 1.1.4 2.1 1.2 2.9.8.8 1.8 1.2 2.9 1.2.7 0 1.4-.2 2-.5 3.2 4.1 4.9 9.1 4.9 14.3 0 12.8-10.4 23.3-23.3 23.3-1.5 0-3.1-.2-4.6-.5-.5-.1-1.1.2-1.2.8-.1.5.2 1.1.8 1.2 1.6.3 3.3.5 5 .5 6.7 0 13.1-2.6 17.9-7.4 4.8-4.8 7.4-11.1 7.4-17.9-.1-5.6-2-11.2-5.5-15.6zm-5-.8c-.4-.4-.6-1-.6-1.5 0-.6.2-1.1.6-1.5.4-.4 1-.6 1.5-.6.6 0 1.1.2 1.5.6.9.8.9 2.2.1 3-.4.4-1 .6-1.5.6-.6.1-1.2-.1-1.6-.6z" fill="#71CAF3"/><path d="M21.2 42.2c0 .5.4 1 1 1h6.2c.5 0 1-.4 1-1v-1.9c1.3-.3 2.5-.9 3.7-1.5l1.4 1.4c.2.2.4.3.7.3.3 0 .5-.1.7-.3l4.4-4.4c.4-.4.4-1 0-1.4L38.8 33c.7-1.2 1.2-2.4 1.5-3.7h1.9c.5 0 1-.4 1-1v-6.2c0-.5-.4-1-1-1h-1.9c-.3-1.3-.9-2.5-1.5-3.7l1.3-1.3c.2-.2.3-.4.3-.7 0-.3-.1-.5-.3-.7l-4.4-4.4c-.4-.4-1-.4-1.4 0L33 11.7c-1.2-.7-2.4-1.2-3.7-1.5V8.3c0-.5-.4-1-1-1h-6.2c-.5 0-1 .4-1 1v1.9c-1.3.3-2.5.9-3.7 1.5l-1.3-1.3c-.4-.4-1-.4-1.4 0l-4.4 4.4c-.2.2-.3.4-.3.7 0 .3.1.5.3.7l1.3 1.3c-.7 1.2-1.2 2.4-1.5 3.7H8.3c-.5 0-1 .4-1 1v6.2c0 .3.1.5.3.7.2.2.4.3.7.3h1.9c.3 1.3.9 2.5 1.5 3.7l-1.3 1.3c-.4.4-.4 1 0 1.4l4.4 4.4c.2.2.4.3.7.3.3 0 .5-.1.7-.3l1.4-1.4c1.2.7 2.4 1.2 3.7 1.5v1.9h-.1zm-3.3-5.5c-.4-.3-.9-.2-1.2.1L15.5 38l-3-3 1.2-1.2c.3-.3.4-.8.1-1.2-.9-1.4-1.5-2.9-1.9-4.5-.1-.5-.5-.8-1-.8H9.3v-4.2H11c.5 0 .9-.3 1-.8.3-1.6 1-3.1 1.9-4.5.3-.4.2-.9-.1-1.2l-1.2-1.2 3-3 1.2 1.2c.3.3.8.4 1.2.1 1.4-.9 2.9-1.5 4.5-1.9.5-.1.8-.5.8-1V9.3h4.2V11c0 .5.3.9.8 1 1.6.3 3.1 1 4.5 1.9.4.3.9.2 1.2-.1l1.2-1.2 3 3-1.2 1.2c-.3.3-.4.8-.1 1.2.9 1.4 1.5 2.9 1.9 4.5.1.5.5.8 1 .8h1.7v4.2h-1.7c-.5 0-.9.3-1 .8-.3 1.6-1 3.1-1.9 4.5-.3.4-.2.9.1 1.2l1.2 1.2-3 3L34 37c-.3-.3-.8-.4-1.2-.1-1.4.9-2.9 1.5-4.5 1.9-.5.1-.8.5-.8 1v1.7h-4.2v-1.7c0-.5-.3-.9-.8-1-1.7-.6-3.2-1.2-4.6-2.1z" fill="#005B96"/><path d="M33.4 25.3c0-4.5-3.7-8.2-8.2-8.2-4.5 0-8.2 3.7-8.2 8.2 0 4.5 3.7 8.2 8.2 8.2 4.5 0 8.2-3.7 8.2-8.2zm-14.3 0c0-3.4 2.8-6.2 6.2-6.2 3.4 0 6.2 2.8 6.2 6.2 0 3.4-2.8 6.2-6.2 6.2-3.4 0-6.2-2.8-6.2-6.2zM34.4 3.7c.3 0 .5-.1.7-.3.2-.2.3-.4.3-.7 0-.3-.1-.5-.3-.7-.2-.2-.4-.3-.7-.3-.3 0-.5.1-.7.3-.2.2-.3.4-.3.7 0 .3.1.5.3.7.1.2.4.3.7.3z" fill="#71CAF3"/><path d="M16.2 46.8c-.3 0-.5.1-.7.3-.2.2-.3.4-.3.7 0 .3.1.5.3.7.2.2.4.3.7.3.3 0 .5-.1.7-.3.2-.2.3-.4.3-.7 0-.3-.1-.5-.3-.7-.2-.2-.4-.3-.7-.3z" fill="#005B96"/></g><defs><clipPath id="clip0"><path fill="#fff" d="M0 0h50.5v50.5H0z"/></clipPath></defs></svg>