<svg width="51" height="48" fill="none" xmlns="http://www.w3.org/2000/svg"><g clip-path="url(#clip0)"><path d="M45.2 24.1l-5.5-8.6c-.4-.7-1.2-1.1-2-1.1H13.3c-.8 0-1.5.4-1.9 1.1l-5.6 8.6c-.6.9-.5 2 .2 2.8l17.8 20c.4.5 1.1.8 1.7.8.7 0 1.3-.3 1.7-.8l17.8-20c.7-.8.8-1.9.2-2.8zm-8.6-7.6L32 23.7l-4.7-7.2h9.3zm-6.5 8h-9.3l4.6-7.2 4.7 7.2zm-6.4-8L19 23.7l-4.7-7.2h9.4zm-11.1.8l4.7 7.2H7.9l4.7-7.2zm-4.3 9.2h10l5.3 17.2L8.3 26.5zm17.2 16.6l-5.1-16.6h10.2l-5.1 16.6zm1.9.6l5.3-17.2h10L27.4 43.7zm6.4-19.2l4.7-7.2 4.7 7.2h-9.4z" fill="#71CAF3"/><path d="M3 24.5H1c-.6 0-1 .4-1 1s.4 1 1 1h2c.6 0 1-.4 1-1 0-.5-.4-1-1-1zm47 0h-2c-.6 0-1 .4-1 1s.4 1 1 1h2c.6 0 1-.4 1-1 0-.5-.4-1-1-1zm-6.5-17c-.4-.4-1-.4-1.4 0l-3.3 3.3c-.4.4-.4 1 0 1.4.2.2.4.3.7.3.3 0 .5-.1.7-.3l3.3-3.3c.4-.4.4-1 0-1.4zm-31.3 3.3L8.9 7.5c-.4-.4-1-.4-1.4 0-.4.4-.4 1 0 1.4l3.3 3.3c.2.2.4.3.7.3.3 0 .5-.1.7-.3.4-.4.4-1 0-1.4z" fill="#005B96"/><path d="M25.5 0c-.6 0-1 .4-1 1v6.5c0 .6.4 1 1 1s1-.4 1-1V1c0-.6-.4-1-1-1z" fill="#71CAF3"/><path d="M26.2 10.2c-.2-.2-.4-.3-.7-.3-.3 0-.5.1-.7.3-.2.2-.3.4-.3.7 0 .3.1.5.3.7.2.2.4.3.7.3.3 0 .5-.1.7-.3.2-.2.3-.4.3-.7 0-.3-.1-.6-.3-.7z" fill="#005B96"/></g><defs><clipPath id="clip0"><path fill="#fff" d="M0 0h51v47.7H0z"/></clipPath></defs></svg>