<svg width="40" height="53" fill="none" xmlns="http://www.w3.org/2000/svg"><g clip-path="url(#clip0)"><path d="M4.1 19.7c0 8.6 7 15.5 15.5 15.5s15.5-7 15.5-15.5-7-15.5-15.5-15.5S4.1 11.1 4.1 19.7zM19.7 6.2c7.4 0 13.5 6 13.5 13.5s-6 13.5-13.5 13.5-13.5-6-13.5-13.5 6-13.5 13.5-13.5z" fill="#005B96"/><path d="M10.1 17.8l4 4-.9 5.6c-.1.4.1.8.4 1 .3.2.7.3 1.1.1l5-2.6 5 2.6c.3.2.8.2 1.1-.1.3-.2.5-.6.4-1l-.9-5.6 4-4c.3-.3.4-.7.3-1.1-.1-.4-.4-.6-.8-.7l-5.6-.8-2.5-5c-.2-.4-.5-.6-.9-.6s-.8.2-.9.6l-2.5 5-5.6.8c-.4.1-.7.3-.8.7-.3.4-.2.8.1 1.1zm7-.6c.3-.1.6-.3.8-.6l1.8-3.7 1.8 3.7c.2.3.4.5.8.6l4.1.6-2.9 2.9c-.2.2-.3.6-.3.9l.7 4-3.6-1.9c-.1-.1-.3-.1-.5-.1s-.3 0-.5.1l-3.6 1.9.7-4c.1-.3-.1-.7-.3-.9L13 17.8l4.1-.6z" fill="#71CAF3"/><path d="M20.7 1c0 .6-.5 1-1 1-.6 0-1-.5-1-1s.5-1 1-1 1 .5 1 1z" fill="#005B96"/><path d="M14.8.6C6.1 2.8 0 10.7 0 19.7c0 5.6 2.3 10.9 6.5 14.6l-6.2 11c-.3.3-.2.7 0 1.1.2.3.6.5 1 .4l7.1-1.5 2.5 7c.1.4.5.6.9.7.4.1.8-.2 1-.5l6.9-12.1 6.9 12.1c.2.3.5.5.9.5h.1c.4 0 .7-.3.9-.7l2.5-7 7.1 1.5c.4.1.8-.1 1-.4.2-.3.3-.8.1-1.1l-6.2-11c4.1-3.7 6.5-9 6.5-14.6 0-9-6.1-16.8-14.8-19.1-.6-.1-1.1.2-1.3.7-.2.5.2 1.1.7 1.3 7.8 2 13.2 9 13.2 17.1 0 9.8-8 17.6-17.6 17.6-9.6 0-17.6-7.8-17.6-17.6 0-8.1 5.4-15.1 13.2-17.1.6-.1.9-.7.7-1.3-.1-.5-.7-.8-1.2-.7zm-2.7 48.9l-2-5.7c-.2-.5-.7-.8-1.2-.7l-5.7 1.2 4.9-8.7c2.9 2.1 6.3 3.4 9.8 3.7l-5.8 10.2zm18.3-6.4c-.5-.1-1 .2-1.2.7l-2 5.7-5.8-10.2c3.5-.3 7-1.6 9.8-3.7l4.9 8.7-5.7-1.2z" fill="#71CAF3"/></g><defs><clipPath id="clip0"><path fill="#fff" d="M0 0h39.3v53H0z"/></clipPath></defs></svg>