<svg width="27" height="27" fill="none" xmlns="http://www.w3.org/2000/svg"><g clip-path="url(#clip0)" fill="#fff"><path d="M21.3 19.6l-.9-.9c-.2-.1-.3-.3-.5-.4L18.6 17c-.6-.6-1.2-.9-1.9-.9s-1.3.3-1.9.9l-.4.4c-.3.3-.6.6-.9 1-.6-.3-1.1-.6-1.8-1.2-.9-.7-1.6-1.4-2.2-2.1-.3-.4-1-.4-1.4-.1-.4.3-.4 1-.1 1.4.7.8 1.5 1.6 2.5 2.4 1 .8 1.8 1.2 2.6 1.6h.1c.2.1.8.3 1.4-.3l1.2-1.2.4-.4c.1-.1.3-.3.5-.3s.4.2.5.3l1.3 1.3.5.5c.3.3.6.6.8.9.2.2.4.5 0 1l-1.6 1.6c-.3.3-.7.5-1.2.6-.8.1-1.7-.1-2.9-.5-1.9-.7-3.7-1.8-5.7-3.4-2.3-2-4.2-4.3-5.5-7-.5-1-1-2.3-1.1-3.6 0-.8.2-1.3.6-1.8.4-.3.7-.6 1-.9l.6-.6c.5-.6.8-.6 1.2-.3L7.8 9c.2.1.3.3.3.5 0 .1-.1.3-.3.5l-1.6 1.6c-.4.4-.4 1 0 1.4.4.4 1 .4 1.4 0l1.6-1.6c.6-.6.8-1.2.8-1.9s-.3-1.3-.8-1.8L6.6 5C5.5 3.9 4 3.9 2.8 5l-.6.6c-.3.3-.6.6-.9.8-.9.9-1.4 2-1.3 3.4.1 1.7.7 3.2 1.3 4.3 1.4 2.9 3.4 5.5 6 7.6 2.1 1.8 4.1 2.9 6.2 3.7.8.3 1.9.7 3.2.7h.5c.9-.1 1.8-.5 2.4-1.1l1.6-1.6c1.1-1.2 1.1-2.7.1-3.8zm-.4-6.5c-.3-2-1.3-3.7-2.7-5.2-1.4-1.4-3.2-2.3-5.1-2.7-.5-.1-1 .3-1.1.8-.1.5.3 1 .8 1.1 1.6.3 3 1 4.1 2.1 1.1 1.1 1.9 2.6 2.1 4.1.1.5.5.8 1 .8h.2c.4 0 .8-.5.7-1zm5.2-.3c-.5-3.2-2.1-6.1-4.4-8.4C19.4 2.1 16.5.6 13.3 0c-.5-.1-1 .3-1.1.8-.1.5.3 1 .8 1.1 2.8.5 5.4 1.8 7.4 3.8 2 2 3.4 4.6 3.8 7.4.1.5.5.8 1 .8h.2c.5 0 .8-.5.7-1.1z"/></g><defs><clipPath id="clip0"><path fill="#fff" d="M0 0h26.2v26.1H0z"/></clipPath></defs></svg>