<svg width="51" height="51" fill="none" xmlns="http://www.w3.org/2000/svg"><g clip-path="url(#clip0)"><path d="M47.7 18.8c-1.7-5.9-5.8-11-11.2-14-.5-.3-1.1-.1-1.3.4-.3.5-.1 1.1.4 1.3 5 2.7 8.7 7.4 10.3 12.8.1.4.5.7.9.7h.3c.4-.1.7-.6.6-1.2z" fill="#005B96"/><path d="M32.5 3.1c-.6-.2-1.1.1-1.3.6-.2.5.1 1.1.6 1.2h.3c.4 0 .8-.3.9-.7.3-.4 0-.9-.5-1.1zM4.5 17c-.5-.2-1.1.1-1.3.6-.2.6-.4 1.1-.5 1.7-.1.5.2 1.1.7 1.2h.3c.4 0 .8-.3 1-.7.1-.5.3-1 .5-1.5.1-.6-.2-1.1-.7-1.3zm3.4-5.8c-.4-.3-1.1-.2-1.4.2-.3.5-.7 1-1 1.4-.3.5-.2 1.1.3 1.4.2.1.3.2.5.2.3 0 .6-.2.8-.5.3-.5.6-.9.9-1.3.4-.4.3-1-.1-1.4zm11-7.3c-.2-.5-.7-.8-1.3-.6-.5.2-1.1.4-1.6.6-.5.2-.7.8-.5 1.3.2.4.5.6.9.6.1 0 .3 0 .4-.1l1.5-.6c.5-.2.8-.7.6-1.2zm-6.1 2.8c-.3-.4-.9-.5-1.4-.2-.5.3-.9.7-1.4 1.1-.3.4-.4 1 0 1.4.2.2.5.3.7.3.2 0 .5-.1.6-.2.4-.3.8-.7 1.3-1 .5-.3.6-.9.2-1.4z" fill="#71CAF3"/><path d="M3 22.3c-1.6 0-3 1.3-3 3s1.3 3 3 3 3-1.3 3-3-1.4-3-3-3zm0 4c-.5 0-1-.4-1-1s.4-1 1-1 1 .4 1 1-.5 1-1 1zm44.6-4c-1.6 0-3 1.3-3 3s1.3 3 3 3 3-1.3 3-3-1.4-3-3-3zm0 4c-.5 0-1-.4-1-1s.4-1 1-1 1 .4 1 1-.5 1-1 1zM25.3 0c-1.6 0-3 1.3-3 3s1.3 3 3 3 3-1.3 3-3-1.4-3-3-3zm0 3.9c-.5 0-1-.4-1-1s.4-1 1-1 1 .4 1 1-.5 1-1 1zM15.2 44c-5-2.7-8.8-7.4-10.4-12.9-.2-.5-.7-.8-1.2-.7-.5.2-.8.7-.7 1.2 1.7 6 5.9 11.1 11.4 14.1.1.1.3.1.5.1.4 0 .7-.2.9-.5.1-.4-.1-1-.5-1.3z" fill="#005B96"/><path d="M18.7 45.6c-.5-.2-1.1.1-1.3.6-.2.5.1 1.1.6 1.2h.3c.4 0 .8-.3.9-.7.3-.4 0-1-.5-1.1zm16.3-.2c-.2-.5-.8-.7-1.3-.5l-1.5.6c-.5.2-.8.7-.6 1.3.1.4.5.7.9.7.1 0 .2 0 .3-.1.5-.2 1.1-.4 1.6-.6.6-.4.9-.9.6-1.4zm9.7-9.1c-.5-.3-1.1-.2-1.4.3-.3.5-.6.9-.9 1.3-.3.4-.2 1.1.2 1.4.2.1.4.2.6.2.3 0 .6-.1.8-.4.3-.5.7-1 1-1.4.3-.5.2-1.1-.3-1.4zm-4.1 5.2c-.4-.4-1-.5-1.4-.1-.4.3-.8.7-1.3 1-.4.3-.5.9-.2 1.4.2.3.5.4.8.4.2 0 .4-.1.6-.2.5-.3.9-.7 1.4-1.1.4-.3.4-.9.1-1.4zM47.1 30c-.5-.1-1.1.2-1.2.7-.1.5-.3 1-.5 1.5s.1 1.1.6 1.3c.1 0 .2.1.3.1.4 0 .8-.3.9-.7.2-.6.4-1.1.5-1.7.2-.5-.1-1-.6-1.2z" fill="#71CAF3"/><path d="M25.3 44.6c-1.6 0-3 1.3-3 3s1.3 3 3 3 3-1.3 3-3-1.4-3-3-3zm0 4c-.5 0-1-.4-1-1s.4-1 1-1 1 .4 1 1-.5 1-1 1zm4.8-24.3h-.4c.9-1 1.5-2.4 1.5-3.9v-3.3c0-3.2-2.6-5.9-5.9-5.9-3.3 0-5.9 2.6-5.9 5.9v3.3c0 1.5.6 2.9 1.5 3.9h-.4c-4 0-7.3 3.3-7.3 7.3v4.9c0 .5.4 1 1 1h22.2c.5 0 1-.4 1-1v-4.9c0-4-3.3-7.3-7.3-7.3zm-4.8-11.1c2 0 3.6 1.4 3.9 3.3l-1.7-1c-.4-.2-.9-.2-1.3.2-.8 1-2.1 1.6-3.4 1.6h-1.4v-.2c0-2.1 1.7-3.9 3.9-3.9zm-3.9 6.1h1.4c1.6 0 3.1-.6 4.3-1.7l2.1 1.2v1.5c0 2.2-1.8 3.9-3.9 3.9-2.1 0-3.9-1.8-3.9-3.9v-1zm14 16.2H15.1v-3.9c0-2.9 2.4-5.3 5.3-5.3h3.8v4.1c0 .5.4 1 1 1s1-.4 1-1v-4.1H30c2.9 0 5.3 2.4 5.3 5.3v3.9h.1z" fill="#005B96"/><path d="M18 19.7l-1.3-1.3c-.2-.2-.4-.3-.7-.3-.3 0-.5.1-.7.3l-6.1 6.1c-.4.4-.4 1 0 1.4.2.2.4.3.7.3.3 0 .5-.1.7-.3l5.4-5.4.6.6c.4.4 1 .4 1.4 0 .4-.4.4-1 0-1.4zm20.7-8H36c-.5 0-1 .4-1 1 0 .5.4 1 1 1h.4l-3.6 3.6c-.4.4-.4 1 0 1.4.2.2.4.3.7.3.3 0 .5-.1.7-.3l3.6-3.6v.4c0 .5.4 1 1 1 .5 0 1-.4 1-1v-2.8c-.1-.5-.5-1-1.1-1z" fill="#71CAF3"/></g><defs><clipPath id="clip0"><path fill="#fff" d="M0 0h50.5v50.5H0z"/></clipPath></defs></svg>