<svg xmlns="http://www.w3.org/2000/svg" viewBox="0 0 26.15 26.13"><g data-name="Слой 2"><path d="M21.29 19.63c-.3-.32-.6-.62-.9-.91l-.46-.44L18.62 17a2.5 2.5 0 00-3.77 0l-.4.4c-.32.31-.64.62-.95 1a9.65 9.65 0 01-1.77-1.16A18.4 18.4 0 019.49 15 1 1 0 108 16.31a20.75 20.75 0 002.47 2.37 10.71 10.71 0 002.6 1.59h.06a1.27 1.27 0 001.48-.27c.37-.41.75-.79 1.16-1.19l.42-.41a.85.85 0 01.52-.29.81.81 0 01.52.29l1.31 1.31.47.46c.3.29.58.57.85.85a.61.61 0 010 1l-1.64 1.64a1.87 1.87 0 01-1.22.58 6.57 6.57 0 01-2.88-.52 19.14 19.14 0 01-5.65-3.4 21.1 21.1 0 01-5.49-7 10.26 10.26 0 01-1.04-3.68 2 2 0 01.65-1.78 12.54 12.54 0 001-.94c.19-.2.37-.39.56-.57a.65.65 0 011.05 0L7.84 9a.75.75 0 01.25.45.84.84 0 01-.26.51L6.2 11.6a1 1 0 000 1.4 1 1 0 001.37 0l1.65-1.64a2.64 2.64 0 00.83-1.89 2.58 2.58 0 00-.84-1.83L6.57 5a2.55 2.55 0 00-3.76 0c-.22.21-.43.43-.63.64s-.55.57-.84.81A4 4 0 000 9.76a12 12 0 001.29 4.34 23 23 0 006 7.64 21.14 21.14 0 006.22 3.73 9.3 9.3 0 003.2.65 4.52 4.52 0 00.51 0A3.81 3.81 0 0019.63 25l1.64-1.65a2.55 2.55 0 000-3.69m-.36-6.6a9.61 9.61 0 00-2.67-5.16 9.47 9.47 0 00-5.15-2.66 1 1 0 10-.33 1.9 7.62 7.62 0 014.11 2.14A7.54 7.54 0 0119 13.39a1 1 0 001 .8h.16a1 1 0 00.79-1.12m5.19-.25a15.54 15.54 0 00-4.37-8.43A15.62 15.62 0 0013.33 0 1 1 0 1013 1.92a13.75 13.75 0 0111.23 11.23 1 1 0 00.95.8h.16a1 1 0 00.8-1.12" fill="#005b96" data-name="Layer 1"/></g></svg>