<svg width="77" height="26" fill="none" xmlns="http://www.w3.org/2000/svg"><g clip-path="url(#clip0)"><path d="M13 18.6c3.4 0 6.1-2.7 6.1-6s-2.7-6-6.1-6c-3.4 0-6.1 2.7-6.1 6s2.7 6 6.1 6z" fill="#C5C5C5"/><path d="M25.8 20.9V1.3C25.9 0 25.2 0 24.7 0H4.6c-.5 0-1 .6-.4 1.2.4.4 2.7 2.7 4 3.9C15.3.5 25.9 8.2 20.6 17.3c1.2 1.2 3.8 3.7 4.1 4 .5.5 1.1.3 1.1-.4zM0 4.4V24c0 1.3.7 1.3 1.1 1.3h20.1c.5 0 1-.6.4-1.2-.4-.4-2.3-2.3-4-3.9C10.5 24.6.2 17.1 5.3 8 4.1 6.8 1.5 4.3 1.2 4 .7 3.6 0 3.8 0 4.4zm75.6 14.7v2.8l-.9-2.8h-1.3v6.2h1.3v-2.8l.8 2.8h1.4v-6.2h-1.3zm-4.4 4.4v.7c0 .1-.1.1-.2.1s-.2 0-.2-.1v-3.6c0-.3 0-.5.1-.6 0-.1.1-.1.2-.1s.2 0 .2.1v.6l-.1 2.9zm1.6-1.8v-1.3c0-.3-.1-.5-.3-.7-.2-.2-.4-.4-.6-.5-.4-.2-.7-.2-1-.2-.3 0-.7.1-.9.2-.3.1-.5.3-.6.5-.2.2-.2.5-.3.7v3.7c0 .3.1.5.3.7.2.2.4.4.6.5.3.1.6.2.9.2.3 0 .7-.1.9-.2.3-.1.5-.3.6-.5.2-.2.2-.5.3-.7v-1.3l.1-1.1zm-6-2.6v6.2h1.6v-6.2h-1.6zm-3.9 0v1.2h1v5h1.6v-5h1v-1.2h-3.6zm-.3 2.1c0-.6 0-1-.1-1.3-.1-.3-.3-.5-.6-.7-.3-.2-.7-.3-1.2-.3-.3 0-.7.1-.9.2-.3.1-.5.3-.6.5-.2.2-.2.4-.3.6V23c0 .6 0 1.1.1 1.4.1.3.3.5.6.7.3.2.7.3 1.2.3s.8-.1 1.1-.3c.3-.2.5-.4.6-.7.1-.3.1-.7.1-1.4v-.2H61v.8c0 .3 0 .6-.1.6 0 .1-.1.1-.2.1s-.2 0-.2-.1-.1-.3-.1-.6v-2.9c0-.3 0-.5.1-.6 0-.1.1-.1.3-.1.1 0 .2 0 .2.1s.1.3.1.6v1.1h1.6l-.1-.6zM56.7 19v5.2c0 .1-.1.1-.2.1s-.1 0-.2-.1v-5.1h-1.6v5.1c0 .2.1.4.2.6.1.2.4.4.6.5.3.1.6.2 1 .2.3 0 .6-.1.9-.2.2-.1.4-.3.6-.5.2-.2.2-.4.3-.6v-5.1l-1.6-.1zm-4.3 1.2c.1.1.1.2.1.4v.3c0 .3 0 .4-.1.5-.1 0-.2.1-.4.1v-1.4c.2 0 .3 0 .4.1zm-2 5H52v-2.8c.2 0 .4 0 .4.1.1.1.1.3.1.6v2.1H54v-2.5c0-.1-.1-.2-.2-.4-.1-.1-.3-.2-.6-.3.4 0 .6-.1.7-.3.1-.2.2-.5.2-1s-.1-.9-.3-1.2c-.2-.2-.4-.4-.7-.5-.3-.1-.8-.1-1.5-.1h-1.1l-.1 6.3zM46.5 19v1.2h1v5h1.6v-5h1V19h-3.6zm-.4 1.7c0-.5 0-.8-.1-1-.1-.2-.3-.4-.6-.5-.3-.1-.7-.2-1.1-.2-.4 0-.7.1-1 .2-.3.1-.5.3-.6.5-.1.2-.2.6-.2 1 0 .3 0 .6.1.8.1.2.2.4.3.5.1.1.4.3.8.6s.7.5.8.6c.1.1.1.4.1.7 0 .2 0 .3-.1.4-.1.1-.1.1-.2.1s-.2 0-.2-.1-.1-.2-.1-.4v-.8h-1.5v.4c0 .5 0 .8.1 1.1.1.3.3.5.6.6.3.2.7.2 1.1.2.4 0 .7-.1 1-.2.3-.1.5-.3.6-.5.1-.2.2-.5.2-1 0-.6-.1-1-.3-1.3-.2-.3-.6-.6-1.4-1.1-.3-.1-.4-.3-.5-.4-.1-.1-.1-.3-.1-.5s0-.3.1-.4c0-.1.1-.1.2-.1s.2 0 .2.1.1.2.1.4v.5h1.5v-.2h.2zM40.7 19v2.8l-.9-2.8h-1.3v6.2h1.3v-2.8l.8 2.8H42V19h-1.3zm-4.5 4.4v.7c0 .1-.1.1-.2.1s-.2 0-.2-.1v-3.6c0-.3 0-.5.1-.6 0-.1.1-.1.2-.1s.2 0 .2.1v.6l-.1 2.9zm1.7-1.8v-1.3c0-.3-.1-.5-.3-.7-.2-.2-.4-.4-.6-.5-.3-.1-.6-.2-.9-.2-.3 0-.7.1-.9.2-.3.1-.5.3-.6.5-.2.2-.2.5-.3.7V24c0 .3.1.5.3.7.2.2.4.4.6.5.3.1.6.2.9.2.3 0 .7-.1.9-.2.3-.1.5-.3.6-.5.2-.2.2-.4.3-.7v-2.4zm-4.3-.5c0-.6 0-1-.1-1.3-.1-.3-.3-.5-.6-.7-.3-.2-.7-.3-1.2-.3-.3 0-.7.1-.9.2-.3.1-.5.3-.6.5-.2.2-.2.4-.3.6v2.8c0 .6 0 1.1.1 1.4.1.3.3.5.6.7.3.2.7.3 1.2.3s.8-.1 1.1-.3c.3-.2.5-.4.6-.7.1-.3.1-.7.1-1.4v-.2H32v.8c0 .3 0 .6-.1.6 0 .1-.1.1-.2.1s-.2 0-.2-.1-.1-.3-.1-.6v-2.9c0-.3 0-.5.1-.6 0-.1.1-.1.3-.1.1 0 .2 0 .2.1s.1.3 0 .6v1.1h1.6v-.6zm23.7-5.3h2.8v-1.2h-1.2v-1.4h1V12h-1v-1.2H60V9.6h-2.7v6.2zm-2.2-5c.1.1.1.2.1.4v.3c0 .3 0 .4-.1.5-.1 0-.2.1-.4.1v-1.4c.2 0 .3 0 .4.1zm-2 5h1.6V13c.2 0 .4 0 .4.1.1.1.1.3.1.6v2.1h1.5v-2.5c0-.1-.1-.2-.2-.4-.1-.1-.3-.2-.6-.3.4 0 .6-.1.7-.3.1-.2.2-.5.2-1s-.1-.9-.3-1.2c-.2-.2-.4-.4-.7-.5-.3-.1-.8-.1-1.5-.1h-1.1l-.1 6.3zm-2.2-1.7v.7c0 .1-.1.1-.2.1s-.2 0-.2-.1v-3.6c0-.3 0-.5.1-.6 0-.1.1-.1.2-.1s.2 0 .2.1v.6l-.1 2.9zm1.6-1.9v-1.3c0-.3-.1-.5-.3-.7-.2-.2-.4-.4-.6-.5-.3-.1-.6-.2-.9-.2-.3 0-.7.1-.9.2-.3.1-.5.3-.6.5-.2.2-.2.5-.3.7v3.7c0 .3.1.5.3.7.2.2.4.4.6.5.3.1.6.2.9.2.3 0 .7-.1.9-.2.3-.1.5-.3.6-.5.2-.2.2-.5.3-.7v-2.4zm-6-2.6v2.2H46V9.6h-1.6v6.2H46v-2.6h.5v2.6h1.6V9.6h-1.6zm-2.7 1.6c0-.5 0-.8-.1-1-.1-.2-.3-.4-.6-.5-.3-.1-.7-.2-1.1-.2-.4 0-.7.1-1 .2-.3.1-.5.3-.6.5-.1.2-.2.6-.2 1 0 .3 0 .6.1.8.1.2.2.4.3.5.1.1.4.3.8.6s.7.5.8.6c.1.1.1.4.1.7 0 .2 0 .3-.1.4-.1.1-.1.1-.2.1s-.2 0-.2-.1-.1-.2-.1-.4v-.8h-1.5v.4c0 .5 0 .8.1 1.1.1.3.3.5.6.6.3.2.7.2 1.1.2.4 0 .7-.1 1-.2.3-.1.5-.3.6-.5.1-.2.2-.5.2-1 0-.6-.1-1-.3-1.3-.2-.3-.6-.6-1.4-1.1-.2-.1-.4-.3-.5-.4-.1-.1-.1-.3-.1-.5s0-.3.1-.4c.1-.1.1-.1.2-.1s.2 0 .2.1.1.2.1.4v.5h1.5v-.2h.2zm-6.5 4.6h1.6v-2.6h1V12h-1v-1.2H40V9.6h-2.7v6.2zm-3.2 0h1.6v-2.6h1V12h-1v-1.2h1.1V9.6h-2.7v6.2zM31.9 14v.7c0 .1-.1.1-.2.1s-.2 0-.2-.1v-3.6c0-.3 0-.5.1-.6 0-.1.1-.1.2-.1s.2 0 .2.1v.6l-.1 2.9zm1.6-1.8v-1.3c0-.3-.1-.5-.3-.7-.2-.2-.4-.4-.6-.5-.3-.1-.6-.2-.9-.2-.3 0-.7.1-.9.2-.3.1-.5.3-.6.5-.2.2-.2.5-.3.7-.1.2 0 .7 0 1.3v2.4c0 .3.1.5.3.7.2.2.4.4.6.5.3.1.6.2.9.2.3 0 .7-.1.9-.2.3-.1.5-.3.6-.5.2-.2.2-.5.3-.7v-2.4zM54.7.2V3L53.8.2h-1.3v6.2h1.3V3.6l.8 2.8H56V.2h-1.3zm-4.9 4c0-.5.1-1.4.3-2.6.1 1 .2 1.9.2 2.6h-.5zm-.9-4l-.8 6.2h1.7l.1-1.1h.6l.1 1.1h1.6L51.3.2h-2.4zm-2.7 0v6.2h1.6V.2h-1.6zm-1.9 1.2c.1.1.1.2.1.4v.5c0 .2 0 .4-.1.5-.1.1-.2.1-.3.1h-.1V1.3c.2 0 .3 0 .4.1zm-2.1 5h1.6V3.9h.4c.4 0 .6 0 .9-.1.2-.1.4-.2.5-.4.1-.2.1-.5.1-.9V2c0-.4 0-.7-.1-.9 0-.2-.1-.3-.2-.5-.1-.1-.3-.2-.5-.3-.2-.1-.6-.1-1-.1h-1.6l-.1 6.2zm-.6-4.6c0-.5 0-.8-.1-1-.1-.2-.3-.4-.6-.5-.3-.1-.7-.2-1.1-.2-.4 0-.7.1-1 .2-.3.1-.5.3-.6.5-.1.2-.2.6-.2 1 0 .3 0 .6.1.8.1.2.2.4.3.5.1.1.4.3.8.6.5.3.8.5.9.6.1.1.1.4.1.7 0 .2 0 .3-.1.4-.1.1-.1.1-.2.1s-.2 0-.2-.1-.1-.2-.1-.4v-.8h-1.5v.4c0 .5 0 .8.1 1.1.1.3.3.5.6.6.3.2.7.2 1.1.2.4 0 .7-.1 1-.2.3-.1.5-.3.6-.5.1-.2.2-.5.2-1 0-.6-.1-1-.3-1.3-.2-.3-.6-.6-1.4-1.1-.2-.1-.4-.3-.5-.4-.1-.1-.1-.3-.1-.5s0-.3.1-.4c.1-.1.1-.1.2-.1s.2 0 .2.1.1.2.1.4V2h1.5l.1-.2zm-6 2.4c0-.5.1-1.4.3-2.6.1 1 .2 1.9.2 2.6h-.5zm-.9-4l-.8 6.2h1.7l.1-1.1h.6l.1 1.1H38L37 .2h-2.3zm-1.1 2.1c0-.6 0-1-.1-1.3-.1-.3-.3-.5-.6-.7-.3-.2-.7-.3-1.2-.3-.3 0-.7.1-.9.2-.3.1-.5.3-.6.5-.2.2-.2.4-.3.6v2.8c0 .6 0 1.1.1 1.4.1.3.3.5.6.7.3.2.7.3 1.2.3s.8-.1 1.1-.3c.3-.2.5-.4.6-.7.1-.3.1-.7.1-1.4v-.2H32v1.4c0 .1-.1.1-.2.1s-.2 0-.2-.1-.1-.3-.1-.6V1.8c0-.3 0-.5.1-.6 0-.1.1-.1.3-.1.1 0 .2 0 .2.1s.1.3 0 .6v1.1h1.6l-.1-.6z" fill="#AFAFAF"/></g><defs><clipPath id="clip0"/></defs></svg>