<svg xmlns="http://www.w3.org/2000/svg" viewBox="0 0 51.38 63.8"><defs><style>.cls-1{fill:#fff}</style></defs><g id="Слой_2" data-name="Слой 2"><g id="Layer_1" data-name="Layer 1"><path class="cls-1" d="M3.05 22.75A19.76 19.76 0 0113.38 5.39L11.34 3a22.8 22.8 0 00-4.6 35.89l2.15-2.17h-.05a19.68 19.68 0 01-5.79-13.97zM34.31 3.06l-2.05 2.35a20.19 20.19 0 014.51 3.37 19.77 19.77 0 010 27.94h-.05l2.15 2.17a22.8 22.8 0 00-4.56-35.83zM29.75 23.6H15.86a34.86 34.86 0 001 7.82h11.87a34.86 34.86 0 001.02-7.82zM28.26 33H17.35a13.35 13.35 0 003 5.4 3.59 3.59 0 002.46 1.16 3.6 3.6 0 002.47-1.16 11.27 11.27 0 002.28-3.53 19.23 19.23 0 00.7-1.87z"/><path class="cls-1" d="M30.37 14.08a36.75 36.75 0 011 7.82h8.51a17 17 0 00-2.34-7.82zm0 17.34h7.14a17 17 0 002.34-7.82h-8.51a36.75 36.75 0 01-.97 7.82zM29 10a22.27 22.27 0 01.92 2.51h6.5a17 17 0 00-9.9-6.38A12.84 12.84 0 0129 10zm-11.66 2.47h10.92a13.35 13.35 0 00-3-5.39 3.57 3.57 0 00-2.46-1.17 3.57 3.57 0 00-2.46 1.17 11.1 11.1 0 00-2.29 3.52c-.25.58-.49 1.2-.71 1.87zm-1.48 9.43h13.88a34.89 34.89 0 00-1-7.82H16.88a34.86 34.86 0 00-1.02 7.82zm.73 13.64a23.59 23.59 0 01-.91-2.54h-6.5a17 17 0 009.9 6.38 13 13 0 01-2.49-3.84zM29.93 33a15.69 15.69 0 01-3.4 6.38 17 17 0 009.9-6.38zM8.1 14.08a17 17 0 00-2.35 7.82h8.52a37.43 37.43 0 011-7.82zm6.17 9.52H5.75a17.1 17.1 0 002.34 7.82h7.14a37.43 37.43 0 01-.96-7.82zm1.4-11.13a15.81 15.81 0 013.4-6.38 17.08 17.08 0 00-9.89 6.38zM9.52 39.8l.32.49a1.26 1.26 0 01-.78.26 1.28 1.28 0 01-.73-.32 1.24 1.24 0 01-.48-.91 1.44 1.44 0 01.39-1 1.52 1.52 0 011-.6 1.28 1.28 0 011 .32 1.21 1.21 0 01.47.79 1.13 1.13 0 01-.11.6l-.53-.27a.6.6 0 00.06-.41.63.63 0 00-.22-.35.67.67 0 00-.55-.16 1.07 1.07 0 00-.62.44 1.12 1.12 0 00-.34.71.62.62 0 00.25.51.55.55 0 00.35.1.89.89 0 00.52-.2zm.48 1.63L11.45 39l1.83 1.13-.26.41-1.32-.82-.34.53 1.24.75-.25.4-1.24-.76-.41.65 1.38.86-.26.4zM12.54 43l1.16-2.6 1.12.5a2 2 0 01.59.35.67.67 0 01.2.38.81.81 0 01-.07.46.78.78 0 01-.39.41 1 1 0 01-.63 0 1.35 1.35 0 01.19.35 3.36 3.36 0 01.12.56l.09.65-.64-.29-.13-.77c-.05-.27-.09-.44-.11-.51a.41.41 0 00-.12-.18.68.68 0 00-.25-.15h-.11l-.48 1.09zm1.2-1.26l.4.17a2.47 2.47 0 00.49.19.33.33 0 00.2 0 .3.3 0 00.14-.17.35.35 0 000-.24.37.37 0 00-.16-.19 3.51 3.51 0 00-.39-.19l-.42-.25zm2.41 2.66l.66-2.26-.81-.24.13-.46 2.21.64-.13.47-.82-.25-.67 2.27zm1.99.52l.54-2.79.58.11-.55 2.76zm1.37.26l.29-2.83 2 .21-.05.48-1.39-.15-.07.67 1.2.12v.48L20.22 44l-.13 1.2zm2.68.21v-2.84h.59v2.84zm3.17-1.18l.58.13a1.19 1.19 0 01-.37.72 1.36 1.36 0 01-1.73 0 1.48 1.48 0 01-.46-1 1.56 1.56 0 01.28-1.13 1.29 1.29 0 01.95-.47 1.19 1.19 0 01.88.23 1.07 1.07 0 01.34.49l-.56.19A.64.64 0 0025 43a.6.6 0 00-.4-.09.66.66 0 00-.5.27 1.09 1.09 0 00-.14.75 1.19 1.19 0 00.26.74.66.66 0 00.92 0 .82.82 0 00.22-.46zm4.02.27l-.62.14-.4-.57-1.13.26-.08.69-.61.14.46-3 .6-.14zm-1.31-.85l-.63-.94-.14 1.12zm2.2.51l-.81-2.22-.81.29-.16-.45 2.16-.76.17.45-.81.29.81 2.22zm1.9-.77L31 40.8l.53-.24 1.21 2.57zm.46-1.73a1.69 1.69 0 01-.26-.69 1.47 1.47 0 010-.47 1.15 1.15 0 01.19-.42 1.83 1.83 0 01.48-.42 1.36 1.36 0 011.07-.2 1.45 1.45 0 01.89.73 1.48 1.48 0 01.24 1.12 1.41 1.41 0 01-.67.86 1.39 1.39 0 01-1.08.2 1.46 1.46 0 01-.86-.71zm.51-.33a1 1 0 00.57.51.76.76 0 00.62-.09.72.72 0 00.36-.51 1 1 0 00-.19-.75 1.06 1.06 0 00-.56-.51.73.73 0 00-.62.1.75.75 0 00-.38.51 1.08 1.08 0 00.2.74zm3.25-.41l-1.81-2.18.43-.36 2.13.69-1.21-1.45.41-.35 1.82 2.18-.45.38-2.08-.68 1.18 1.42zM14.86 4.49l-1.1-2.62.54-.23 1.1 2.62zm.63-1.29L16 3a.61.61 0 00.32.33.56.56 0 00.44 0 .61.61 0 00.37-.23.36.36 0 00.06-.31.26.26 0 00-.11-.14.38.38 0 00-.24-.06h-.48a1.57 1.57 0 01-.71-.07.77.77 0 01-.43-.47.79.79 0 010-.43.79.79 0 01.26-.38A1.58 1.58 0 0116 1a1.24 1.24 0 01.85 0 .83.83 0 01.46.51l-.55.2a.49.49 0 00-.24-.25.59.59 0 00-.39 0 .7.7 0 00-.35.21.21.21 0 000 .2.2.2 0 00.12.13 1.79 1.79 0 00.57 0 2.73 2.73 0 01.66 0 .7.7 0 01.39.18.89.89 0 01.25.4.75.75 0 010 .47.81.81 0 01-.28.42 1.69 1.69 0 01-.57.29 1.27 1.27 0 01-.88 0 1.07 1.07 0 01-.55-.56zm2.6-1.29a1.65 1.65 0 010-.74 1.35 1.35 0 01.2-.42 1.2 1.2 0 01.33-.31 1.77 1.77 0 01.6-.21 1.37 1.37 0 011.08.23 1.45 1.45 0 01.54 1 1.48 1.48 0 01-.21 1.12 1.55 1.55 0 01-2 .32 1.47 1.47 0 01-.54-.99zm.59-.11a1 1 0 00.34.69.78.78 0 00.61.16.75.75 0 00.53-.34 1 1 0 00.1-.76 1.09 1.09 0 00-.32-.69.82.82 0 00-1.15.14 1.08 1.08 0 00-.11.8zm3.89.36h.54a.44.44 0 00.09.25.33.33 0 00.22.08.35.35 0 00.3-.14 1.35 1.35 0 00.17-.64.66.66 0 01-.53.22.8.8 0 01-.58-.28.92.92 0 01-.22-.68 1 1 0 01.28-.69 1 1 0 011.39.12 1.7 1.7 0 01.24 1.11 1.63 1.63 0 01-.33 1.11 1 1 0 01-.78.32.81.81 0 01-.54-.2.86.86 0 01-.25-.58zM23.87 1a.63.63 0 00-.11-.41.36.36 0 00-.28-.16.31.31 0 00-.26.11.64.64 0 00-.12.46.67.67 0 00.1.41.35.35 0 00.27.13.34.34 0 00.28-.11.59.59 0 00.12-.43zM26.1.23a.81.81 0 01.61.38 1.88 1.88 0 01.11 1.19 1.74 1.74 0 01-.45 1.1.79.79 0 01-.69.2.81.81 0 01-.62-.42A1.76 1.76 0 0125 1.52a1.88 1.88 0 01.45-1.1.79.79 0 01.65-.19zm-.1.44a.31.31 0 00-.19 0 .36.36 0 00-.15.21 2.93 2.93 0 00-.16.69 2.75 2.75 0 00-.05.69.46.46 0 00.09.26.28.28 0 00.17.09.26.26 0 00.19 0 .42.42 0 00.15-.2 3.07 3.07 0 00.16-.69A3.35 3.35 0 0026.3 1a.6.6 0 00-.09-.27.32.32 0 00-.21-.06zm2.6.06a.85.85 0 01.56.46 1.92 1.92 0 010 1.19 1.83 1.83 0 01-.57 1 .88.88 0 01-1.29-.36 1.88 1.88 0 010-1.17 1.76 1.76 0 01.57-1 .79.79 0 01.73-.12zm-.12.44a.25.25 0 00-.19 0 .38.38 0 00-.18.18 3 3 0 00-.23.68 2.84 2.84 0 00-.13.67.61.61 0 00.06.28.34.34 0 00.16.1.31.31 0 00.19 0 .47.47 0 00.18-.19 3.09 3.09 0 00.23-.67 2.89 2.89 0 00.13-.68.45.45 0 00-.06-.27.26.26 0 00-.16-.1zm1.95 3.18l-.51-.2.74-1.91a1.88 1.88 0 01-.82.12L30 1.9a1.55 1.55 0 00.53-.08.9.9 0 00.47-.29l.42.16zM0 53.91h1.82v9.72H0zm3.4 2.92H5v1.29l.88-1.24a4.44 4.44 0 011.38-.22c2 0 2.34 1.24 2.34 2.66v4.31H8v-3.87c0-1-.19-1.84-1.45-1.84a2.72 2.72 0 00-1.55.51v5.2H3.4zm10.53 6.87a3.52 3.52 0 01-.81.1 1.75 1.75 0 01-1.36-.53 2 2 0 01-.4-1.55v-3.73h-.88l.73-1.18h.17v-1.28L13 55v1.77h1.53V58H13v3c0 .74 0 1 .16 1.28a1 1 0 00.84.37 2.83 2.83 0 00.91-.18zm6.42-.12a6.11 6.11 0 01-1.64.22A3.34 3.34 0 0115 60.26a3.29 3.29 0 013.28-3.61 3.23 3.23 0 011.4.29c1.64.76 1.66 2.56 1.67 3.39h-4.59a2.46 2.46 0 00.66 1.7 2.56 2.56 0 001.77.6 5.19 5.19 0 001.95-.42zm-.63-4.27a1.81 1.81 0 00-.4-1.15 1.34 1.34 0 00-1-.41c-.84 0-1.38.66-1.55 1.56zM24 63.63h-1.67v-6.8H24V58l.78-1.1a3.41 3.41 0 011.22-.21 1.93 1.93 0 01.65.1v1.57a2.79 2.79 0 00-1.29-.36 2.58 2.58 0 00-1.37.41zm6.56.07a3.7 3.7 0 01-.82.1 1.75 1.75 0 01-1.36-.53 2 2 0 01-.4-1.55L28 58h-.88l.73-1.18H28v-1.29l1.6-.49v1.77h1.53V58h-1.52v3c0 .74 0 1 .16 1.28a1 1 0 00.84.37 2.83 2.83 0 00.91-.18zm6.44-.12a6.06 6.06 0 01-1.64.22 3.34 3.34 0 01-3.69-3.54 3.29 3.29 0 013.28-3.61 3.23 3.23 0 011.4.29C38 57.7 38 59.5 38 60.33h-4.62A2.46 2.46 0 0034 62a2.57 2.57 0 001.78.6 5.18 5.18 0 001.94-.42zm-.63-4.27a1.81 1.81 0 00-.4-1.15 1.34 1.34 0 00-1-.41c-.84 0-1.38.66-1.55 1.56zm9.24 4.32h-2l-3.03-3.59v3.59h-1.63v-9.72h1.63v5.81l2.76-2.89h1.88l-2.85 3.01 3.24 3.79zM0 48.97h45.61v1.14H0zM46.88 45v-2.58h-1v-.34h2.3v.34h-1V45zm1.73 0v-2.9h.58l.69 2.06.14.43c0-.11.08-.27.15-.47l.7-2h.51V45H51v-2.45L50.17 45h-.35L49 42.51V45z"/></g></g></svg>