<svg xmlns="http://www.w3.org/2000/svg" viewBox="0 0 51.03 63.8"><defs><style>.cls-1{fill:#fff}</style></defs><g id="Слой_2" data-name="Слой 2"><g id="Layer_1" data-name="Layer 1"><path class="cls-1" d="M29.74 23.6H15.86a34.81 34.81 0 001 7.82h11.87a34.81 34.81 0 001.01-7.82zM28.26 33H17.34a13.37 13.37 0 003 5.39 3.59 3.59 0 002.46 1.16 3.58 3.58 0 002.46-1.16 11 11 0 002.29-3.53c.25-.54.45-1.16.71-1.86zm2.11-18.91a36.75 36.75 0 011 7.82h8.51a17 17 0 00-2.34-7.82zm0 17.33h7.14a17 17 0 002.34-7.82h-8.51a36.75 36.75 0 01-.97 7.82zM29 10a24.2 24.2 0 01.92 2.5h6.5a17.15 17.15 0 00-9.9-6.38A13.09 13.09 0 0129 10zm-11.66 2.47h10.92a13.37 13.37 0 00-3-5.39 3.58 3.58 0 00-2.46-1.16 3.59 3.59 0 00-2.46 1.16 11 11 0 00-2.29 3.53c-.25.57-.49 1.2-.71 1.86zm-1.48 9.44h13.88a34.81 34.81 0 00-1-7.82H16.88a34.78 34.78 0 00-1.02 7.82zm.73 13.63a24.2 24.2 0 01-.92-2.5H9.18a17.06 17.06 0 009.9 6.37 12.86 12.86 0 01-2.49-3.87zM29.93 33a15.71 15.71 0 01-3.4 6.37 17.09 17.09 0 009.9-6.37zM8.09 14.09a17 17 0 00-2.34 7.82h8.52a36.77 36.77 0 011-7.82zm6.18 9.51H5.75a17 17 0 002.34 7.82h7.14a36.14 36.14 0 01-.96-7.82zm1.4-11.13a15.65 15.65 0 013.4-6.37 17.06 17.06 0 00-9.89 6.37zM9.51 39.8l.33.5a1.31 1.31 0 01-.78.25 1.22 1.22 0 01-.73-.32 1.28 1.28 0 01-.49-.9 1.47 1.47 0 01.4-1 1.49 1.49 0 011-.61 1.28 1.28 0 011 .33 1.18 1.18 0 01.47.79 1.12 1.12 0 01-.11.59l-.53-.27a.57.57 0 00.06-.4.63.63 0 00-.22-.36.71.71 0 00-.55-.16 1.07 1.07 0 00-.62.44 1.14 1.14 0 00-.34.72.6.6 0 00.25.5.59.59 0 00.35.1.89.89 0 00.51-.2zm.49 1.63L11.45 39l1.83 1.14-.26.4-1.32-.82-.34.53 1.24.75-.26.41-1.23-.77-.41.65 1.38.86-.26.41zM12.54 43l1.16-2.6 1.12.5a2.51 2.51 0 01.59.35.66.66 0 01.19.38.77.77 0 01-.06.47.8.8 0 01-.39.4 1 1 0 01-.63 0 1.45 1.45 0 01.19.34 2.71 2.71 0 01.11.56l.1.65-.64-.29-.13-.76c-.05-.27-.09-.43-.11-.51a.57.57 0 00-.12-.18 1.14 1.14 0 00-.25-.15h-.11l-.48 1.09zm1.2-1.26l.4.18a2.91 2.91 0 00.49.18.33.33 0 00.2 0 .3.3 0 00.14-.17.34.34 0 000-.24.41.41 0 00-.16-.19 2.62 2.62 0 00-.39-.18l-.42-.26zm2.41 2.67l.66-2.27-.81-.24.13-.46 2.21.65-.13.46-.83-.24-.66 2.26zm1.99.51l.54-2.79.58.11-.55 2.76zm1.37.26l.29-2.83 2 .21-.05.48-1.39-.15-.07.67 1.2.13v.47L20.22 44l-.13 1.2zm2.68.21v-2.84h.58v2.84zm3.17-1.18l.58.13a1.24 1.24 0 01-.37.73 1.34 1.34 0 01-.75.29 1.27 1.27 0 01-1-.31 1.44 1.44 0 01-.46-1 1.53 1.53 0 01.28-1.13 1.27 1.27 0 01.94-.47 1.25 1.25 0 01.89.23 1.11 1.11 0 01.34.5l-.56.18A.64.64 0 0025 43a.7.7 0 00-.9.18 1.09 1.09 0 00-.14.75 1.2 1.2 0 00.26.75.64.64 0 00.53.18.55.55 0 00.39-.18.85.85 0 00.22-.47zm4.01.27l-.62.14-.39-.57-1.13.26-.08.69-.61.14.46-3 .6-.14zm-1.3-.85l-.63-.94-.14 1.12zm2.2.51l-.81-2.22-.81.3-.16-.46 2.16-.76.17.45-.81.29.81 2.22zm1.9-.76L31 40.81l.53-.25 1.21 2.57zm.46-1.74a1.82 1.82 0 01-.27-.69 1.25 1.25 0 010-.47 1 1 0 01.19-.41 1.64 1.64 0 01.47-.43 1.38 1.38 0 011.08-.19 1.46 1.46 0 01.89.72 1.44 1.44 0 01.23 1.12 1.35 1.35 0 01-.66.86 1.33 1.33 0 01-2-.51zm.5-.33a1 1 0 00.58.51.76.76 0 00.62-.09.72.72 0 00.36-.51 1.08 1.08 0 00-.19-.75 1.13 1.13 0 00-.57-.51.82.82 0 00-1 .61 1.06 1.06 0 00.2.74zm3.26-.41l-1.82-2.18.44-.36 2.13.7-1.22-1.46.42-.35 1.82 2.18-.45.38-2.09-.68 1.19 1.43zM13.85 5l-1.24-2.59.53-.26 1.24 2.56zm.56-1.36l.51-.25a.69.69 0 00.34.32.81.81 0 00.8-.28.32.32 0 000-.31A.26.26 0 0016 3a.55.55 0 00-.24 0h-.49a1.56 1.56 0 01-.71 0 .73.73 0 01-.45-.44.7.7 0 010-.43.79.79 0 01.23-.39 1.61 1.61 0 01.5-.29 1.24 1.24 0 01.85-.07.82.82 0 01.49.49l-.57.13a.47.47 0 00-.26-.23.58.58 0 00-.38 0 .62.62 0 00-.33.24.18.18 0 000 .2.23.23 0 00.14.13 1.53 1.53 0 00.57 0 2.65 2.65 0 01.66 0 .76.76 0 01.4.16.78.78 0 01.27.38.79.79 0 010 .48.78.78 0 01-.26.43 1.51 1.51 0 01-.55.32 1.25 1.25 0 01-.87.09 1.08 1.08 0 01-.59-.56zm2.52-1.43a1.7 1.7 0 010-.74 1.16 1.16 0 01.16-.47 1.1 1.1 0 01.31-.29 1.66 1.66 0 01.6-.24 1.36 1.36 0 011.08.16 1.48 1.48 0 01.61 1 1.51 1.51 0 01-.15 1.13 1.35 1.35 0 01-.91.6 1.42 1.42 0 01-1.09-.16 1.49 1.49 0 01-.61-.99zm.59-.14a1.09 1.09 0 00.37.67.76.76 0 00.62.12.74.74 0 00.49-.36 1.1 1.1 0 00.06-.78 1.07 1.07 0 00-.36-.66.71.71 0 00-.6-.06.74.74 0 00-.52.36 1 1 0 00-.06.71zm5.77.26v.5h-1.95a1.33 1.33 0 01.18-.54 3.25 3.25 0 01.61-.7 5 5 0 00.45-.47.68.68 0 00.12-.3.42.42 0 00-.11-.28.41.41 0 00-.28-.09.37.37 0 00-.31.11.46.46 0 00-.11.34h-.56a.89.89 0 01.3-.65 1.12 1.12 0 01.69-.25 1 1 0 01.68.21.75.75 0 01.25.56.93.93 0 01-.06.37 1.79 1.79 0 01-.21.37l-.36.37c-.17.16-.28.26-.33.32l-.11.15zm2.27.18v.5l-1.94-.17a1.34 1.34 0 01.24-.53 3.36 3.36 0 01.68-.62 6.12 6.12 0 00.5-.42.68.68 0 00.1-.27.37.37 0 00-.07-.29.38.38 0 00-.27-.17.37.37 0 00-.28.07.49.49 0 00-.15.33l-.55-.1a.88.88 0 01.37-.62 1 1 0 01.67-.13 1 1 0 01.65.28.74.74 0 01.19.63 1.08 1.08 0 01-.1.35 1.5 1.5 0 01-.26.35A3.7 3.7 0 0125 2l-.36.29a.86.86 0 00-.13.14zM27.35.45a.82.82 0 01.59.42 1.89 1.89 0 010 1.19 1.88 1.88 0 01-.51 1.08.79.79 0 01-.7.15.81.81 0 01-.61-.45 1.87 1.87 0 010-1.16 1.87 1.87 0 01.53-1.07.82.82 0 01.7-.16zm-.09.44a.29.29 0 00-.18 0 .44.44 0 00-.17.2 2.86 2.86 0 00-.2.68 3.29 3.29 0 00-.08.68.44.44 0 00.07.27.3.3 0 00.17.1.23.23 0 00.18 0 .4.4 0 00.17-.19 3.59 3.59 0 00.2-.69 3.16 3.16 0 00.08-.68.44.44 0 00-.07-.26.37.37 0 00-.17-.11zm2.55.21a.77.77 0 01.54.48 1.89 1.89 0 01-.09 1.19 1.87 1.87 0 01-.63 1 .8.8 0 01-.71.08.84.84 0 01-.55-.52 1.82 1.82 0 01.1-1.16 1.91 1.91 0 01.63-1 .77.77 0 01.71-.07zm-.14.43a.31.31 0 00-.19 0 .38.38 0 00-.18.18 3.26 3.26 0 00-.28.66 3.42 3.42 0 00-.16.66.42.42 0 00.05.28.26.26 0 00.15.12.31.31 0 00.19 0 .38.38 0 00.18-.18 3.38 3.38 0 00.28-.65 3.47 3.47 0 00.16-.67.44.44 0 00-.05-.28.22.22 0 00-.15-.12zm2.51.47a.8.8 0 01.48.54 1.91 1.91 0 01-.22 1.17 1.87 1.87 0 01-.74.94.79.79 0 01-.72 0 .83.83 0 01-.49-.57 1.83 1.83 0 01.24-1.14 1.79 1.79 0 01.73-.94.79.79 0 01.72 0zm-.18.42a.31.31 0 00-.19 0 .4.4 0 00-.21.15 3.11 3.11 0 00-.35.63 3.2 3.2 0 00-.23.64.49.49 0 000 .28.29.29 0 00.14.13.25.25 0 00.19 0 .4.4 0 00.2-.16 2.56 2.56 0 00.35-.62 3 3 0 00.24-.64.46.46 0 000-.28.29.29 0 00-.14-.13zM0 53.91h1.82v9.72H0zm3.4 2.92H5v1.29l.88-1.24a4.44 4.44 0 011.38-.22c2 0 2.34 1.24 2.34 2.66v4.31H8v-3.87c0-1-.19-1.84-1.45-1.84a2.8 2.8 0 00-1.55.51v5.2H3.4zm10.53 6.87a3.52 3.52 0 01-.81.1 1.74 1.74 0 01-1.36-.53 1.94 1.94 0 01-.4-1.55v-3.73h-.86l.73-1.18h.18v-1.28L13 55v1.77h1.53V58H13v3c0 .74 0 1 .16 1.28a1 1 0 00.84.37 2.89 2.89 0 00.91-.18zm6.42-.12a6.11 6.11 0 01-1.64.22A3.34 3.34 0 0115 60.26c0-2.11 1.29-3.61 3.28-3.61a3.23 3.23 0 011.4.29c1.64.76 1.66 2.56 1.67 3.39h-4.59a2.46 2.46 0 00.66 1.7 2.54 2.54 0 001.77.6 5.07 5.07 0 001.94-.42zm-.63-4.27a1.81 1.81 0 00-.4-1.15 1.34 1.34 0 00-1-.41c-.84 0-1.38.66-1.55 1.56zM24 63.63h-1.67v-6.8H24V58l.79-1.1a3.41 3.41 0 011.21-.21 1.82 1.82 0 01.64.1v1.57a2.75 2.75 0 00-1.28-.36 2.63 2.63 0 00-1.38.41zm6.55.07a3.52 3.52 0 01-.81.1 1.74 1.74 0 01-1.36-.53 1.94 1.94 0 01-.4-1.55L28 58h-.88l.73-1.18H28v-1.29l1.6-.49v1.77h1.53V58H29.6v3c0 .74 0 1 .17 1.28a1 1 0 00.84.37 2.89 2.89 0 00.91-.18zm6.45-.12a6.11 6.11 0 01-1.64.22 3.34 3.34 0 01-3.69-3.54c0-2.11 1.29-3.61 3.28-3.61a3.23 3.23 0 011.4.29C38 57.7 38 59.5 38 60.33h-4.63a2.2 2.2 0 002.44 2.3 5.12 5.12 0 001.94-.42zm-.63-4.27a1.87 1.87 0 00-.4-1.15 1.36 1.36 0 00-1-.41c-.83 0-1.37.66-1.54 1.56zm9.23 4.32h-2l-3.02-3.59v3.59h-1.63v-9.72h1.63v5.81l2.75-2.89h1.89l-2.85 3.01 3.23 3.79zM0 48.98h45.6v1.14H0zm46.63-3.54v-2.5h-.94v-.34H48v.34h-1v2.5zm1.69 0V42.6h.57l.67 2c.06.18.1.32.13.42 0-.11.09-.26.15-.46l.68-2H51v2.84h-.36v-2.33l-.83 2.37h-.31L48.68 43v2.41z"/><path class="cls-1" d="M6.74 38.93l2.14-2.16v-.05a19.78 19.78 0 014.3-31.22l-1-1.18-1-1.16a22.79 22.79 0 00-4.4 35.77zm35.81-16.18a19.71 19.71 0 01-5.78 14l-.05.05 2.15 2.16a22.8 22.8 0 00-4.41-35.8l-1 1.16-1 1.18a20 20 0 014.35 3.29 19.71 19.71 0 015.74 13.96z"/></g></g></svg>