<svg width="101" height="33" fill="none" xmlns="http://www.w3.org/2000/svg"><g clip-path="url(#clip0)"><path d="M81.9 26c0 .2-.1.4-.2.5-.2.2-.4.2-.7.2-.2 0-.4-.1-.6-.2l-.3-.3c-.1-.2-.1-.4-.1-.6 0-.3.1-.5.2-.7.1-.2.2-.3.4-.3.1-.1.3-.1.4-.1.2 0 .4 0 .5.1.1.1.2.1.2.3.1.1.1.2.1.3h-.5c0-.1 0-.2-.1-.2-.1-.1-.2-.1-.3-.1-.2 0-.3.1-.4.2-.1.1-.2.3-.2.6s.1.5.2.6c.1.1.2.1.3.1.1 0 .2 0 .3-.1.1-.1.1-.2.1-.3h.7zm2.3-1.4h.4l.8 2.2h-.5l-.1-.4H84l-.1.4h-.5l.8-2.2zm0 1.3h.5l-.2-.7-.3.7zm2.6.1h.5c0 .1.1.2.1.2.1.1.2.1.3.1.3 0 .4-.1.4-.2s-.1-.2-.3-.2l-.4-.1c-.2-.1-.3-.1-.4-.2-.1 0-.1-.1-.1-.2s-.1-.2-.1-.3c0-.2.1-.3.2-.5.1-.1.4-.2.6-.2.3 0 .5.1.6.2.1.1.2.3.2.5h-.5c0-.1 0-.2-.1-.2-.1-.1-.2-.1-.3-.1-.1 0-.2 0-.3.1-.1 0-.1.1-.1.2s0 .1.1.1c0 0 .1.1.2.1l.3.1c.2.1.4.1.5.2.1 0 .1.1.1.2s.1.2.1.3c0 .1 0 .3-.1.4-.1.2-.4.3-.7.3-.2 0-.4 0-.6-.1 0-.2-.2-.4-.2-.7zm3.4-1.4h1.1c.1 0 .2.1.2.1.2.1.2.3.2.5s-.1.4-.2.5c-.1.1-.1.1-.2.1h-.8v.7H90v-1.9h.2zm.5.4v.6h.4c.1 0 .2 0 .2-.1.1-.1.1-.1.1-.2s0-.2-.1-.2c-.1-.1-.2-.1-.3-.1h-.3zm2.8-.4h.5v2.2h-.5v-2.2zm2.8 0h.5l.8 2.2H97l-.1-.4h-.7l-.2.3h-.5l.8-2.1zm-.1 1.3h.5l-.2-.7-.3.7zm2.8-1.3h.5l.9 1.4v-1.4h.5v2.2h-.5l-.9-1.4v1.4H99v-2.2zm-24.5 0h.5v.8h.9v-.8h.5v2.2h-.5v-.9H75v.9h-.5v-2.2zm-3.2 0H73v.4h-.6v1.7h-.5V25h-.6v-.4zm-2.8.4v.6h.5c.1 0 .1 0 .2-.1s.1-.1.1-.2 0-.1-.1-.2-.2-.1-.3-.1h-.4zm-.5-.4h1.2c.1 0 .1 0 .2.1l.2.2c.1.1.1.2.1.3 0 .2-.1.4-.3.5.1 0 .2.1.2.1 0 .1.1.1.1.3v.5s0 .1.1.1h-.5v-.6c0-.1 0-.1-.1-.2 0 0-.1-.1-.2-.1h-.5v.8H68v-2zm-2.7.3c-.2 0-.3.1-.4.2-.1.1-.2.3-.2.5s.1.4.2.5c.1.1.2.2.4.2s.3-.1.4-.2c.1-.1.2-.3.2-.5s0-.4-.1-.5c-.2-.1-.3-.2-.5-.2zm0-.4c.3 0 .5.1.7.2.1.1.2.2.2.3.1.2.1.4.1.5 0 .3-.1.5-.2.7-.2.3-.5.4-.8.4-.3 0-.5-.1-.7-.2-.1-.1-.2-.2-.2-.3-.1-.2-.1-.4-.1-.6 0-.1 0-.2.1-.4 0-.1.1-.2.1-.3.1-.2.2-.3.4-.3.1.1.2 0 .4 0zm-4.5.1h.5l.8 1.4v-1.4h.5v2.2h-.5l-.8-1.4v1.4h-.5v-2.2zm1 4c.3 0 .5.1.7.2.1.1.2.2.2.3.1.2.1.4.1.5 0 .3-.1.5-.2.7-.2.3-.5.4-.8.4-.3 0-.5-.1-.7-.2-.1-.1-.2-.2-.2-.3-.1-.2-.1-.4-.1-.6 0-.1 0-.2.1-.4 0-.1.1-.2.1-.3.1-.2.2-.3.4-.3h.4zm0 .4c-.2 0-.3.1-.4.2-.1.1-.2.3-.2.5s.1.4.2.5c.1.1.2.2.4.2s.3-.1.4-.2c.1-.1.2-.3.2-.5s0-.4-.1-.5c-.2-.2-.3-.2-.5-.2zm1.8-.4h1.1c.1 0 .2.1.2.1.2.1.2.3.2.5s-.1.4-.2.5c-.1.1-.1.1-.2.1h-.8v.7h-.5l.2-1.9zm.5.4v.6h.4c.1 0 .2 0 .2-.1.1-.1.1-.1.1-.2s0-.2-.1-.2c-.1-.1-.1-.1-.3-.1h-.3zm1.9-.4h1.6v.4h-1.1v.4h1v.4h-1v.5h1.2v.4H66v-2.1zm2.4 0h1.2s.1 0 .2.1l.2.2c.1.1.1.2.1.3 0 .2-.1.4-.3.5.1 0 .2.1.2.1 0 .1.1.1.1.3v.5s0 .1.1.1h-.5v-.6c0-.1 0-.1-.1-.2 0 0-.1-.1-.2-.1h-.5v.8h-.5v-2zm.5.4v.6h.5c.1 0 .1 0 .2-.1s.1-.1.1-.2 0-.1-.1-.2-.2-.1-.2-.1h-.5zm2.7-.4h.4l.8 2.2h-.5l-.1-.4h-.7l-.1.4h-.5l.7-2.2zm0 1.3h.5l-.2-.7-.3.7zm1.7-1.3H75v.4h-.6v1.7h-.5V29h-.6v-.4zm2.4 0h.5v2.2h-.5v-2.2zm1.3 0h.5l.8 1.4v-1.4h.5v2.2h-.5l-.8-1.4v1.4H77v-2.2zm3.7 1h.9v1.1h-.3l-.1-.2c-.1.2-.4.3-.6.3-.2 0-.4 0-.5-.1l-.3-.3c-.1-.2-.2-.4-.2-.6 0-.3.1-.5.2-.7.1-.2.2-.3.4-.4.2-.1.3-.1.5-.1s.3 0 .5.1c.3.1.4.3.5.7h-.5v-.1l-.1-.1c-.2-.2-.3-.2-.4-.2-.1 0-.2 0-.3.1-.2.1-.3.3-.3.6 0 .2 0 .3.1.5s.3.3.5.3c.1 0 .3 0 .4-.1.1-.1.2-.2.2-.3h-.5l-.1-.5zm4.4.4c0 .2-.1.4-.2.5-.2.2-.4.2-.7.2-.2 0-.4-.1-.6-.2l-.3-.3c-.1-.2-.1-.4-.1-.6 0-.3.1-.5.2-.7.1-.2.2-.3.4-.3.1-.1.3-.1.4-.1.2 0 .4 0 .5.1.1.1.2.1.2.2.1.1.1.2.1.3h-.5c0-.1 0-.2-.1-.2.1.1 0 .1-.2.1s-.3.1-.4.2c-.1.1-.2.3-.2.6s.1.5.2.6c.1.1.2.1.3.1.1 0 .2 0 .3-.1.1-.1.1-.2.1-.3l.6-.1zm1.8-1.4c.3 0 .5.1.7.2.1.1.2.2.2.3.1.2.1.4.1.5 0 .3-.1.5-.2.7-.2.3-.5.4-.8.4-.3 0-.5-.1-.7-.2-.1-.1-.2-.2-.2-.3-.1-.2-.1-.4-.1-.6 0-.1 0-.2.1-.4 0-.1.1-.2.1-.3.1-.2.2-.3.4-.3h.4zm0 .4c-.2 0-.3.1-.4.2-.1.1-.2.3-.2.5s.1.4.2.5c.1.1.2.2.4.2s.3-.1.4-.2c.1-.1.2-.3.2-.5s0-.4-.1-.5c-.2-.2-.4-.2-.5-.2zm1.8-.4h.7l.4 1.6.4-1.6h.6v2.2h-.4v-1.6l-.4 1.6h-.4l-.5-1.6v1.6h-.4v-2.2zm3 0h1.1c.1 0 .2.1.2.1.2.1.2.3.2.5s-.1.4-.2.5c-.1.1-.1.1-.2.1H92v.7h-.5v-1.9h.2zm.5.4v.6h.4c.1 0 .2 0 .2-.1.1-.1.1-.1.1-.2s0-.2-.1-.2c-.1-.1-.1-.1-.3-.1h-.3zm2.5-.4h.5l.8 2.2h-.5l-.1-.4h-.7l-.1.4h-.5l.6-2.2zm0 1.3h.5l-.2-.7-.3.7zm1.9-1.3h.5l.8 1.4v-1.4h.5v2.2h-.5l-.8-1.4v1.4h-.5v-2.2zm2.4 0h.5l.4.9.4-.9h.5l-.7 1.3v.8h-.5v-.8l-.6-1.3z" fill="#6F6F6F"/><path d="M76.1 13.3h3.4v2.2h-2.6c-.4 0-.7.1-1 .2-.3.1-.6.3-.8.6-.3.3-.4.5-.6.8-.1.3-.2.6-.2.9 0 .4.1.7.2 1 .1.3.3.6.6.8.2.3.5.4.8.6.3.1.7.2 1 .2h2.6v2.2h-3.4c-.7 0-1.3-.1-1.8-.3-.6-.2-1-.6-1.5-1-.4-.5-.8-1-1-1.5-.2-.6-.3-1.2-.3-1.9 0-1.2.5-2.3 1.4-3.2.5-.5 1-.8 1.5-1 .5-.4 1.1-.6 1.7-.6zM86.2 23c-.8 0-1.5-.1-2.1-.3-.6-.2-1.2-.5-1.7-.9-.5-.5-1-1-1.2-1.6-.3-.6-.4-1.3-.4-2.1s.1-1.5.4-2.1c.3-.6.7-1.2 1.2-1.6.5-.4 1.1-.8 1.7-1 .6-.2 1.3-.3 2.1-.3s1.5.1 2.1.3c.6.2 1.2.5 1.7 1s1 1 1.2 1.6c.3.6.4 1.3.4 2.1s-.1 1.5-.4 2.1c-.3.6-.7 1.2-1.2 1.6-.5.4-1.1.7-1.7.9-.6.2-1.3.3-2.1.3zm0-7.7c-.4 0-.8.1-1.1.2-.3.1-.6.3-.8.6-.2.3-.4.6-.5.9-.1.3-.2.7-.2 1.1 0 .4.1.7.2 1.1.1.3.3.6.5.9.3.3.5.5.9.6.3.1.7.2 1.1.2.4 0 .8-.1 1.1-.2.3-.1.6-.3.8-.6.5-.5.7-1.2.7-2 0-.4-.1-.8-.2-1.1-.1-.3-.3-.6-.6-.9-.2-.3-.5-.5-.8-.6-.3-.1-.7-.2-1.1-.2zm11.2-2h3.4v2.2h-2.6c-.4 0-.7.1-1 .2-.3.1-.6.3-.8.6-.3.3-.4.5-.6.8-.1.3-.2.6-.2.9 0 .4.1.7.2 1 .1.3.3.6.6.8.2.3.5.4.8.6.3.1.7.2 1 .2h2.6v2.2h-3.4c-.7 0-1.3-.1-1.8-.3-.6-.2-1-.6-1.5-1-.4-.5-.8-1-1-1.5-.2-.6-.3-1.2-.3-1.9 0-1.2.5-2.3 1.4-3.2.5-.5 1-.8 1.5-1 .5-.4 1.1-.6 1.7-.6zm-30.3 0h2.6v9.5h-2.6l-3.7-5.1v5.1h-2.7v-9.5h2.7l3.7 5.1v-5.1z" fill="#6C6C6C"/><path d="M16 18.1c.4-2.6 1.6-4.8 3.4-6.6C21.6 9.3 24.7 8 28.1 8c3.4 0 6.4 1.4 8.6 3.6 2 2 3.3 4.7 3.5 7.7.3-.1.7-.2 1-.3-.3-3.2-1.7-6-3.8-8.1C35 8.5 31.7 7 28 7s-7 1.5-9.4 3.9c-1.9 1.9-3.2 4.3-3.7 7 .5 0 .8.1 1.1.2zm8.3 1.9c.6.1 1.2.1 1.9.2l.1-.1-1.1-1.1-.9 1zm3.7-3.8l-1.1 1.1 1.1 1.1h.1l1.1-1.1-1.1-1.1H28zm-9.6 2.7c.2-1.2.5-2.3 1.1-3.4l.5.5h.5l2.4 2.4v.5l1 .9.2-.2.7-.7.2-.2-.9-1h-.5l-2.4-2.4v-.5l-.7-.7.3-.3.7.7h.5l2.4 2.4v.5l1 .9.2-.2.7-.7.2-.2-.9-1h-.5l-2.4-2.4v-.5l-.7-.7.3-.3.7.7h.5l2.4 2.4v.5l1 .9.2-.2.7-.7.2-.2-.9-1h-.5l-2.4-2.4v-.5l-.5-.5c1.4-.8 3-1.2 4.7-1.2 1.7 0 3.3.4 4.7 1.2l-.5.5v.5l-2.4 2.4h-.5l-.9 1 .2.2.7.7.2.2 1-.9v-.5l2.4-2.4h.5l.7-.7.3.3-.7.7v.5l-2.4 2.4h-.5l-.9 1 .2.2.7.7.2.2 1-.9v-.5l2.4-2.4h.5l.7-.7.3.3-1.3.8v.5l-2.4 2.4h-.5l-.9 1 .2.2.7.7.2.2 1-.9v-.5l2.4-2.4h.5l.5-.5c.7 1.3 1.1 2.7 1.2 4.3.4-.1.9-.2 1.3-.3-.2-2.8-1.4-5.3-3.2-7.2-2-2-4.8-3.2-7.8-3.2-3.1 0-5.8 1.2-7.8 3.2-1.6 1.6-2.7 3.8-3.1 6.1.4.2.8.3 1.1.4zm7.1-.2l1.1 1.1 1.1-1.1-.1-.1-1.1-1.1-1 1.2zm3.6 1.5L28 19.1l-1 1.1.1.1c.6 0 1.2.1 1.9.1l.1-.2zm.4-2.5l-1 1v.1l1.1 1.1.1-.1 1-1 .1-.1-1.3-1zm1.4 1.3l-1.1 1.1.1.1v.1l.2.2h1.6l.1-.1.1-.1.1-.1-1.1-1.2zm11.3-5.3c.4-.2 1-.8 1.4-1.1l1-.9-1.4.1c-.4 0-1.4 0-1.8.2-.6.3-.9.9-.7 1.3.2.5.9.7 1.5.4zm-2.7-4.8c.3-.3.7-1.2.9-1.6L41 6l-1.3.6c-.4.2-1.3.6-1.6.9-.5.5-.6 1.2-.2 1.6.4.4 1.1.3 1.6-.2zm-4.1-2.8c.2-.5.3-1.6.4-2.1l.3-1.7-1.2 1.2c-.4.4-1.3 1.1-1.5 1.6-.4.7-.2 1.6.3 1.9.5.1 1.3-.2 1.7-.9zm-21.5 7.6c.6.3 1.3.1 1.5-.4.2-.5-.1-1.1-.7-1.3-.4-.2-1.3-.2-1.8-.2l-1.4-.1 1 .9c.4.3 1 1 1.4 1.1zm2.7-4.8c.5.5 1.2.6 1.6.2.4-.4.3-1.1-.2-1.6-.3-.3-1.2-.7-1.6-.9L15.1 6l.6 1.3c.2.4.6 1.3.9 1.6zm4.1-2.8c.4.7 1.2 1.1 1.7.8.6-.3.7-1.1.3-1.9-.2-.5-1.1-1.2-1.5-1.6L20 2.2l.3 1.7c.1.5.2 1.7.4 2.2zm6-2.2c0-.5.5-1.7.7-2.2L28 0l.6 1.7c.2.5.6 1.7.6 2.2 0 .9-.6 1.6-1.2 1.6-.8 0-1.3-.7-1.3-1.6z" fill="silver"/><path d="M28.4 23.3c-.4-.8-.9-1.3-1.6-1.7-1.5-.9-3.7-1.7-6.5-1.9-2.2-.2-4.9.2-8-.8-2-.7-3.1-2.3-5.5-3.7-1.3-.7-3.4-1.1-5.1-2-.3-.2-.7-.4-1-.6-.3-.2-.4-.2-.5-.2-1.2.3 2.2 4.6 5.6 5.8 4.8 1.7 2.5 1.7 2.5 1.7s-2.6-.3-5.9-2.2c-.7.9.6 2.3 3.3 3.3 2.7.9 3.2 1 3.2 1s1.5.1-.6.7c-1.1.3-2.7 0-2.7.3.1.9 5.5 1.9 6.5 2.5 0 0-3.9.4-2.4 1.2 3 1.6 7 2.2 10.8 2.7l2.1.3c1 .1 1.7.2 2.6-.1 1.7-.4 2.5-2.3 2.3-3.7-.1-.9-.7-1.6-1.4-2-.9-.5-2.1-.6-2.9.2-.7.7-.9 2.1.1 2.5.9.3 1.4-.2 1.5-.6.2-.5-.2-1-.8-1.2.5-.3 1.1-.3 1.6.1.8.8.5 2.2-.6 2.9-1 .5-2.6.3-3.2-.5-.8-.8-1.2-2.6.4-4.3-2.7 1.1-3.8.6-6.6-1.4 0 0 1.6.5 5.5.3s4.4-.2 5.8.3c.7.3 1.2.7 1.5 1.1zm2.6-1.9c1.7-.1 3.3-.7 4.7-.7 2.5-.1 4.6.3 7.2-.5 1.3-.4 2.4-1.7 4-2.6 1.1-.6 2.5-.6 3.8-1.4 1.2-.8 2.6-1.8 4.1-2.9l.3-.3c.1-.1.3 0 .4 0 1.1.3-1.5 3.7-4.8 4.8-3.6 1.2 0 1.5 2.8-.1 1 1-.3 2.8-3.4 3.7-3.2.8-3.2 1-3.2 1-1.9.2 3.5-.1 3.4.2-.2 1.6-4.4 2.8-5.8 2.8 0 0 2.4.2 1.1 1.2-4.7 3.5-10.7-1.5-15.7 5.9.8-5.8 6.7-9.3 7.5-6.3.6-.8 1-2.5-1.7-3-1.6-1.9-6.3.6-5.1-1.7 0 0 .1-.1.2-.1h.2z" fill="#6C6C6C"/></g><defs><clipPath id="clip0"/></defs></svg>