<svg xmlns="http://www.w3.org/2000/svg" viewBox="0 0 45.47 64.83"><defs><style>.cls-1{fill:#fff}</style></defs><g id="Слой_2" data-name="Слой 2"><g id="Layer_1" data-name="Layer 1"><path class="cls-1" d="M16.64 7.2a.51.51 0 000-1 .51.51 0 100 1zM18 7.07a.51.51 0 100-1 .51.51 0 000 1zm1.23.37a.5.5 0 00.51-.5.51.51 0 10-1 0 .5.5 0 00.49.5zm1.21.4a.51.51 0 000-1 .51.51 0 000 1zm-4.88-.08a.51.51 0 10-.51-.51.51.51 0 00.51.51zm-.88.91a.5.5 0 00.51-.5.51.51 0 00-.51-.51.5.5 0 00-.5.51.5.5 0 00.5.5zm-.45 1.12a.51.51 0 000-1 .51.51 0 000 1zM14.18 11a.51.51 0 10-.51-.51.5.5 0 00.51.51zm.35 1.23a.51.51 0 10-.51-.51.51.51 0 00.51.51z"/><path class="cls-1" d="M15.23 11.68a3.1 3.1 0 010-3.2 2.94 2.94 0 012.31-1.33 4.64 4.64 0 011.79.44 5.73 5.73 0 001.91.5v.27a5.81 5.81 0 01-2-.52 4.5 4.5 0 00-1.7-.42 2.67 2.67 0 00-2.07 1.21 2.82 2.82 0 000 2.93zm12.4-4.48a.51.51 0 11.51-.51.51.51 0 01-.51.51zm-1.35-.13a.51.51 0 11.51-.5.5.5 0 01-.51.5zM25 7.44a.5.5 0 01-.51-.5.51.51 0 111 0 .5.5 0 01-.49.5zm-1.18.4a.51.51 0 11.51-.51.51.51 0 01-.51.51zm4.88-.08a.51.51 0 11.51-.51.51.51 0 01-.51.51zm.88.91a.5.5 0 01-.51-.5.51.51 0 111 0 .5.5 0 01-.49.5zM30 9.79a.51.51 0 11.51-.51.51.51 0 01-.51.51zm.09 1.21a.51.51 0 11.51-.51.51.51 0 01-.51.51zm-.35 1.23a.51.51 0 110-1 .51.51 0 010 1z"/><path class="cls-1" d="M29 11.68l-.25-.12a2.82 2.82 0 000-2.93 2.66 2.66 0 00-2.07-1.21 4.4 4.4 0 00-1.68.42 5.94 5.94 0 01-2 .52v-.27a5.66 5.66 0 001.9-.5 4.64 4.64 0 011.79-.44A2.93 2.93 0 0129 8.48a3.09 3.09 0 010 3.2z"/><path class="cls-1" d="M29.81 12.58l-.58-1.09-.43-.35a1.78 1.78 0 01-.26.55 2.21 2.21 0 01.22 1.79c-.52-.24-.16-1.41-.16-1.41l-.19-.07-1.15 2.88.2.06c.58-1 1.05-.75 1.05-.75C28 15.43 27 15 27 15a1.06 1.06 0 01-.77-1.25c0-.14.17-.43.44-.38s.3.31 0 .53c0 0 .8.28 1-.38s-.54-1-1-.92c0 0 .39-1.15-.09-1.74-.7.3-.89 1.51-.89 1.51a.77.77 0 00-1.3.34c-.14.68.74.86.74.86-.19-.34-.07-.58.19-.53s.21.41.17.54A1.52 1.52 0 0124 14.63a1.45 1.45 0 01-1.42-1.34 1.32 1.32 0 011.26 1.09h.26v-3.06h-.31s-.29 1.1-1.23 1.06a1.38 1.38 0 011.1-1.31v-.29h-.53V7.36h-.42a1.2 1.2 0 00.68-1.13A1.44 1.44 0 0022.74 5a1.69 1.69 0 01-.33-1 1.77 1.77 0 01.76.3V3.09a1.31 1.31 0 01-.78.31 1.22 1.22 0 01.38-.86H21.5a1.24 1.24 0 01.37.86 1.27 1.27 0 01-.77-.31v1.22a1.71 1.71 0 01.75-.3s0 .73-.32 1a1.42 1.42 0 00-.68 1.18 1.19 1.19 0 00.68 1.13h-.42v3.42h-.54v.29a1.37 1.37 0 011.1 1.31c-.93 0-1.23-1.06-1.23-1.06h-.31v3.06h.27a1.31 1.31 0 011.25-1.09 1.44 1.44 0 01-1.41 1.34 1.5 1.5 0 01-1.42-1.07c-.05-.13-.09-.48.16-.54s.39.19.2.53c0 0 .87-.18.74-.86a.78.78 0 00-1.31-.34s-.19-1.21-.89-1.51c-.48.59-.09 1.74-.09 1.74-.44-.12-1.19.24-1 .92s1 .38 1 .38c-.33-.22-.28-.47 0-.53s.41.24.43.38a1.06 1.06 0 01-.77 1.31s-1 .44-1.53-.85c0 0 .46-.21 1 .75l.19-.06-1.1-2.84-.21.08s.36 1.17-.15 1.41a2.17 2.17 0 01.22-1.79 1.89 1.89 0 01-.27-.55l-.43.35-.58 1.09 1.4 3.53-.23.55.55.26.21.52a15 15 0 015.75-1 14.91 14.91 0 015.75 1l.22-.52.54-.26-.23-.55zm-13.46 4.16l-.43-.19.18-.43.44.18zm3.08-.66c-.25 0-.74.08-.93.12a.29.29 0 01-.32-.3c0-.16.12-.26.3-.3a7.26 7.26 0 011-.12.3.3 0 01.3.3c-.02.22-.14.29-.35.3zm3.31-5.29h-.08V7.45h.08zm-1.18 0h-.08V7.45h.08zm-.47-4.38V6.1a4.07 4.07 0 01.91-.16v-.8h.34v.8a4.24 4.24 0 01.88.16v.31s-.69-.1-1-.11-1.13.11-1.13.11zm1 3.5a.3.3 0 11.29-.3.29.29 0 01-.25.3zm.29.42a.29.29 0 11-.29-.29.29.29 0 01.33.29zm-.29-1.14a.29.29 0 01-.29-.29.29.29 0 11.58 0 .29.29 0 01-.25.29zm0-.71a.3.3 0 01-.29-.3.29.29 0 11.58 0 .3.3 0 01-.25.3zm0-.72a.3.3 0 11.29-.29.29.29 0 01-.25.29zm0 8.41l-.55-.55.55-.55.55.55zm3.71 0c-.19 0-.67-.1-.93-.12a.29.29 0 01-.32-.3.3.3 0 01.3-.3 7.66 7.66 0 011 .12c.18 0 .3.14.3.3a.3.3 0 01-.3.33zm2.58.35l-.43.19-.18-.44.43-.18zM8.35 43.79v-3.98a6.3 6.3 0 00.75 0 6.27 6.27 0 00.74 0A29.28 29.28 0 009.69 43c0 2.21.64 2.57 1.81 2.57 1.45 0 1.55-1.57 1.55-3.25 0-.83 0-1.65-.07-2.49a2.4 2.4 0 00.46 0 2.3 2.3 0 00.45 0c-.05.54-.12 1.83-.12 3.4 0 2.1-.91 3-2.67 3-1.54-.06-2.75-.73-2.75-2.44zm10.1-.57c0 1.3 0 2.27.07 2.84a5.5 5.5 0 00-1.48 0c.05-.8.07-1.5.07-2.51v-1.23c0-1 0-1.71-.07-2.51a5.5 5.5 0 001.48 0c-.07.48-.07 1.72-.07 2.89.81-1 2-2.43 2.31-2.89a4.2 4.2 0 00.51 0h.54c-.41.41-1.87 2-2.34 2.61.78 1.18 2 3 2.47 3.64-.35 0-.61-.05-.87-.05s-.53 0-.79.05l-1.81-2.84zm11.18 2.84c-.29 0-.54-.05-.79-.05s-.52 0-.77.05q-.29-.93-.63-1.86h-2.1a18.36 18.36 0 00-.61 1.86 3.15 3.15 0 00-.43-.06 4.12 4.12 0 00-.45.05c.45-1 1.8-4.23 2.58-6.29a1.51 1.51 0 00.69 0c.77 2.07 1.88 4.82 2.51 6.3zm-2.39-2.39c-.27-.74-.52-1.45-.81-2.16-.31.71-.59 1.42-.85 2.16zM35.05 41a1.08 1.08 0 00-1.1-.77.87.87 0 00-.94.81c0 1.34 2.75 1 2.75 3.06a2.12 2.12 0 01-2.4 2 2.54 2.54 0 01-1.45-.39c.11-.41.19-.74.26-1.14h.17a1.19 1.19 0 001.25 1 .93.93 0 001.06-.92c0-1.37-2.7-1-2.7-3.06a1.91 1.91 0 012-1.94 2.33 2.33 0 011.48.45c-.11.28-.17.5-.29.89zM15.7 49.74a1.73 1.73 0 01-1.25 1.66c.48.29 1 .6 1.28.75a2 2 0 00-.69.26 13.28 13.28 0 00-1.27-.93A1.64 1.64 0 0112 49.74 1.75 1.75 0 0113.85 48a1.67 1.67 0 011.85 1.74zm-1.87-1.47c-.66 0-1.05.68-1.05 1.51 0 1 .48 1.4 1 1.4s1.1-.48 1.1-1.55c.02-.84-.42-1.36-1.05-1.36zm2.67 2.36v-2.14a4 4 0 00.8 0 14.39 14.39 0 00-.07 1.7c0 1.19.34 1.39 1 1.39s.84-.84.84-1.75v-1.34a1 1 0 00.24 0 1 1 0 00.25 0c0 .29-.06 1-.06 1.83 0 1.13-.5 1.59-1.44 1.59s-1.56-.36-1.56-1.28zm5.98.79h-.84c-.1-.33-.21-.67-.34-1h-1.13c-.13.33-.23.66-.33 1h-.47c.24-.54 1-2.27 1.39-3.38h.37c.41 1.11.98 2.59 1.35 3.38zm-1.29-1.29c-.14-.39-.28-.77-.43-1.15-.17.38-.32.76-.46 1.15zm1.81-.72v-1.35h.8v3.01a8.38 8.38 0 001.03-.07 1.27 1.27 0 000 .22 1.06 1.06 0 000 .21h-1.85v-1.35zm2.44 0v-1.35h.8v3.36h-.8v-1.35zm2.18-.56a2.2 2.2 0 000-.42 8.09 8.09 0 00-.89.06.78.78 0 000-.22.76.76 0 000-.21h2.51a.76.76 0 000 .21.78.78 0 000 .22 7.34 7.34 0 00-.87-.06v2.99h-.8v-1.35zm3.38.67a9.46 9.46 0 00.73-1.46h.46c-.21.37-.7 1.25-1 1.87v.47a9.15 9.15 0 00.05 1h-.83c0-.31.06-.64.06-.94v-.45c-.33-.65-.89-1.69-1-2h.87c.23.48.59 1.24.73 1.46zM12.67 56h-.84c-.1-.34-.22-.67-.34-1h-1.13a9 9 0 00-.36 1 1.81 1.81 0 00-.23 0h-.24c.24-.55 1-2.28 1.39-3.39h.37c.44 1.06 1.01 2.54 1.38 3.39zm-1.29-1.29c-.14-.39-.28-.78-.43-1.16-.17.38-.32.77-.46 1.16zm1.81-2.13h.22a.78.78 0 00.22 0c.7.78 1.4 1.55 2.12 2.32v-2.32h.22a.83.83 0 00.22 0c-.08 1.42-.08 2.07-.08 3.37a.69.69 0 00-.2 0 .58.58 0 00-.19 0c-.66-.79-1.38-1.58-2.13-2.37v2.37a.83.83 0 00-.22 0 .85.85 0 00-.23 0c0-.15.1-1.4.1-2.4-.02-.43-.04-.73-.05-.97zM19.63 56h-.85c-.1-.34-.21-.67-.33-1h-1.13a7.31 7.31 0 00-.32 1h-.48c.24-.55 1-2.28 1.39-3.39h.37c.4 1.06.97 2.54 1.35 3.39zm-1.3-1.29c-.14-.39-.27-.78-.43-1.16-.17.38-.32.77-.46 1.16zm4.34-1.4a1.13 1.13 0 00-1-.49c-.61 0-1.23.51-1.23 1.53a1.21 1.21 0 001.18 1.36 1.45 1.45 0 00.53-.09 1.62 1.62 0 000-.34 6.46 6.46 0 000-.84 2.51 2.51 0 00.37 0 2.44 2.44 0 00.39 0 5.39 5.39 0 000 .82v.53a4.49 4.49 0 01-1.3.22 1.7 1.7 0 01-1.92-1.63 1.8 1.8 0 012-1.86 2.36 2.36 0 011.17.29c-.05.17-.11.34-.14.5zm.96.62v-1.35h1.87a1.15 1.15 0 000 .21 1.27 1.27 0 000 .22L24.38 53v1.06h1.11a1.22 1.22 0 000 .22 1 1 0 000 .2h-1.11v1.13a10.65 10.65 0 001.12-.06 1.09 1.09 0 000 .22 1.06 1.06 0 000 .21h-.85a9.1 9.1 0 00-1 0v-1.35zm2.87-.2c-.1.74-.14 1.48-.19 2.22h-.23a.91.91 0 00-.23 0c.2-1.13.36-2.24.5-3.37a.69.69 0 00.2 0h.2c.35.78.76 1.65 1.12 2.33.39-.72.78-1.55 1.13-2.33a.82.82 0 00.21 0 .76.76 0 00.21 0c.13 1.13.3 2.68.42 3.37a2.69 2.69 0 00-.4 0L29 56c0-.68-.12-1.51-.2-2.26-.36.75-.72 1.5-1.07 2.26h-.19c-.34-.74-.69-1.48-1.06-2.22zm3.9.2v-1.35h1.87a1.15 1.15 0 000 .21 1.27 1.27 0 000 .22L31.15 53v1.06h1.11a1.22 1.22 0 000 .22 1 1 0 000 .2h-1.11v1.13a10.65 10.65 0 001.12-.06 1.09 1.09 0 000 .22 1.06 1.06 0 000 .21h-.86a9 9 0 00-1 0v-1.35zm2.5-1.35a.82.82 0 00.44 0c.7.78 1.4 1.55 2.11 2.32v-2.32a.78.78 0 00.22 0h.22c-.08 1.42-.08 2.07-.08 3.37a.69.69 0 00-.2 0 .58.58 0 00-.19 0q-1-1.19-2.13-2.37v2.37h-.23a.83.83 0 00-.22 0c0-.15.09-1.4.09-2.4-.01-.43-.03-.73-.03-.97zm4.34.8v-.43c-.19 0-.6 0-.89.06a1.49 1.49 0 000-.21 1.8 1.8 0 000-.22h2.5a1.8 1.8 0 000 .22 1.49 1.49 0 000 .21c-.26 0-.67-.06-.86-.06v3a3.88 3.88 0 00-.4 0 3.47 3.47 0 00-.4 0V54.6z"/><path class="cls-1" d="M14.49 21.51v9.13l6.38 7.13L33.51 19l-.12-6.88-12.52 17.77-6.38-8.38zm6.86 41.61c0 1.1-.41 1.71-1.13 1.71s-1.06-.6-1.07-1.67.47-1.68 1.12-1.68 1.08.61 1.08 1.64zm-1.76.05c0 .84.26 1.32.65 1.32s.67-.53.67-1.35-.21-1.32-.66-1.32-.66.47-.66 1.35zm3.11-1.23l-.56.31-.14-.34.71-.38h.38v3.24h-.39zm2.96 2.83v-.88h-1.5v-.29l1.44-2.07h.48v2h.45v.34h-.45v.88zm0-1.22v-1.59c-.1.19-.18.33-.27.47l-.79 1.11h1.06zM6.22 53.72c-.1.74-.14 1.48-.19 2.21h-.46c.21-1.12.37-2.24.5-3.36a.68.68 0 00.4 0c.35.78.77 1.64 1.12 2.33.39-.72.79-1.55 1.14-2.33a.71.71 0 00.21 0h.2c.13 1.12.3 2.68.42 3.36h-.8c0-.67-.12-1.5-.19-2.26-.37.76-.73 1.51-1.08 2.26h-.2c-.29-.73-.69-1.47-1.06-2.21z"/><path class="cls-1" d="M45 .48v57.86H.48V.48H45m.47-.48H0v58.82h45.47V0z"/></g></g></svg>