<svg width="24" height="29" fill="none" xmlns="http://www.w3.org/2000/svg"><g clip-path="url(#clip0)"><path d="M22.7 28.8c.5 0 .9-.4.9-.9V10.1c0-.5-.4-.9-.9-.9H.9c-.5 0-.9.4-.9.9V28c0 .5.4.9.9.9h21.8v-.1z" fill="#D5D5D5"/><path d="M14.1 2.3c0-.1-.1-.3-.2-.3-.6-.3-1.2.1-1.8.1-.2 0-.4 0-.6-.1 0-.1.1-.1.1-.2-.1 0-.3 0-.5-.1 0 0-.4 0-.6-.1-.9-.4-1.6-.5-2.6-.1-.3.1-.6.3-.9.3-.1 0 .2.3.2.4-.5.1-.9.2-1.4.6.3.4.8.5 1.2.5.1 0 .4.3 1.1.4 1 .2 1.6-.4 2.3-.1v-.3c.8.2 1.5.2 2.2-.1.6-.1.8-1 1.5-.9z" fill="#818181"/><path d="M4.9 1.8c0 .2-.1.3-.3.3-.2 0-.3-.1-.3-.3 0-.2.1-.3.3-.3.1 0 .3.1.3.3zM14 6.2c.6-.6.9-1.6 1.2-2.1.3-.5.6-.8 1-.8s.9.3 1 .7c.1.3 0 .7-.1 1-.2.3-.6.4-.9.3-.2-.1-.4-.2-.5-.3-.2.3-.5.7-.9 1-.2.1-.5.2-.8.2zM5.3 2.4L6 2c.1 0 .1.1.2.2.1 0 0-.2.1-.3.1 0 .1.1.2.2.2 0 .1-.3.2-.4.1-.2.4-.1.3-.4L6.8.2C6.7.1 6.7 0 6.6 0 5.7.4 5 .7 4.2 1h-.3L2.6 0c.1.6.1 1.1.2 1.5v.1c-.4 0-.6.2-.8.5-.2.4-.4.7-.8.9.1.2.2.3.4.3.1.1.2 0 .4.1v.1c-.5.6 0 1.4-.6 1.8.3.1.6 0 .8-.2-.1.4-.2.8-.1 1.3v.2s0 .1-.1.2c.8-.1 1.1-1.1 1.2-1.3 0 0-.2.7 0 1.1.1.1.1.1.2.1.1-.4.3-.8.6-1.1.3 0 .6.2.9.3.2-.4-.1-1-.1-1s.2.3.3.4c.1.1.6.2.8 0 .1-.1.2-.2.2-.3-.7.1-.7-.9-1.1-1.3.2 0 .3.3.5.4 0 0 1 .2 1.1.2.1 0 .1-.1.1-.1s.1-.4.1-.6c-.1-.1-.2.1-.3.1-.3 0-.4-.1-.7-.2l-.5-1.1c-.1.1 0 0 0 0zm6.6 3.8c-.1-.1-.1-.3-.1-.2-.2.2-.2.5-.1.7 0 .1-.1.1-.1.1-.2-.2-.3-.4-.4-.6-.2.1-.3.3-.3.5s.1.4 0 .4c-.3 0-.4-.5-.4-.8-.1 0-.2.1-.3.3-.2 0-.2.3-.4.2-.2 0-.3-.3-.3-.6 0-.1-.1 0-.2 0-.1.2-.3.4-.4.6-.2-.2-.2-.5-.2-.8-.3.1-.7 1-1.1 1 0 0-.1 0 0-.1.2-.2.2-.6.1-.9 0-.1-.1-.3-.1-.2 0 0-.3.4-.5.5-.1 0-.3.2-.5.3 0-.2.4-.7.2-1.4-.2.2-.3.3-.8.5-.3.1-.5 0-.7-.1 0 .2-.1.5-.3.7 0 0-.7-.4-.9-.3-.2 0-.4.7-.6 1.1-.3 0-.7-.3-.7-.6-.2.7-.2 1.4-.1 2.2.4 1.9 1 3.2 1.4 5.5.2.8-.8 1.3-1.1 2.1h1.2c.1 0 .3-.1.3-.3.1-.4.1-.9.3-1.3.4-.1.5-.6.9-.8 0-.1-.2-.2-.2-.3l.4-.4c0-.1-.2-.2-.2-.3 0-.1 0-.2.1-.3.1-.1.4-.2.2-.4-.1-.2-.3-.1-.5-.3.1-.2.3-.5.5-.6-.1-.3-.4-.4-.7-.3v-.5c0-.1.1 0 .1 0 .3.2.6.3.9.4 0 .3.1.6.1.8 0 .4.3.7.3 1.2 0 .3-.4.5-.6.6-.1.1-.2.1-.2.3.2.3.6.5.9.8.2-.3.3-.7.5-.9.2 0 .3-.1.4-.1.1 0 .2 0 .3-.1-.1-.2-.3-.4-.5-.5.1-.1.3-.1.4-.1.1 0 .2 0 .2-.1-.2-.1-.4-.2-.4-.4.2-.1.5-.3.6-.6-.1-.1-.3-.1-.4-.2 0-.2 0-.4.1-.5 0-.1.1-.2.2-.2.5.1 1.1.1 1.6 0 0 0 .2 0 .2.1-.1.6-.4 1.2-.5 1.9-.2.3-.5.4-.7.6-.2.1-.4.2-.5.4l1 .8c.2-.2.3-.6.5-.8 0-.1 0-.2.1-.3.2 0 .4 0 .6-.1 0-.2-.2-.3-.3-.5.2 0 .4 0 .5-.1.1-.1.2-.2.2-.3h-.2s-.1 0-.1-.1c.3-.1.6-.1.8-.4 0 0-.1 0-.1-.1s.1-.1.1-.1c.2-.1.4-.3.4-.5-.2 0-.4 0-.4-.2.1-.2.3-.3.5-.3.3.6.6 1.2 1.1 1.7v.2l-1 1v.1h1.3c.1 0 .2-.1.2-.1 0-.4 0-.7.1-1.1.2-.2.3-.5.6-.5 0-.1-.2-.2-.3-.3 0-.2.1-.3.2-.4-.1-.1-.3.1-.4 0 .1-.1.2-.1.3-.4 0-.1 0 0 0 0h-.3c-.1-.1-.2-.1-.2-.3.1-.2.3-.4.4-.6.1-.1.1-.1.2 0 .1.2.1.4.2.5 0 .1 0 .3.1.4.3.2.6.5.9.8.1.2.3.4.3.7l-.8 1.2v.1l.1.1 1.2-.3h.1v-.9c.1-.1.3-.2.5-.4 0-.1-.1-.1-.1-.1 0-.1.1-.2.2-.3-.1-.1-.3-.1-.3-.3.2-.1.3-.3.4-.5-.1-.1-.2 0-.3 0-.1 0-.5 0-.6-.2-.1-.1-.1-.3-.1-.5v-.1c.9.3 1.9.5 2.9.7 0 0 .1 0 .2.1.4.7.8 1.3 1.2 2 .1.2.2.3.2.4-.2.4-.6.7-.9 1-.1.2 0 .3.1.3l1.2-.2s.1 0 .1-.1c0-.3.1-.6.1-.9.1-.2.3-.2.4-.3-.1-.1-.2-.2-.4-.3-.3-.2-.4-.5-.4-.7-.2-.5.3-.4.3-.7l-.3-.3c0-.2.1-.2.3-.3 0-.1-.1-.2-.2-.2s-.2-.1-.3-.1c0-.1.4-.2.3-.6-.1.1-.3 0-.4 0-.2-.1.1-.2 0-.4-.3-.1-.6-.2-.9-.4-.2-.1-.3-.4-.4-.6-.3-.9-.6-1.7-1.2-2.5-.2-.3-.2-.3-.4-.4-.1 0 0-.2.1-.3.1-.1.3-.3.3-.4.2-.5.2-1.3-.1-1.8-.3-.6-.8-.9-1.4-.9-.9 0-1.5.7-1.8 1.5-.4 1-.3 1.4-.9 1.9-.2.1-.5.1-.7-.1-.1-.1-.2-.3-.1-.5.1 0 .2.2.2.2.1.1.2.1.3 0 .1-.1.2-.2.2-.4s-.1-.3-.2-.4c-.2-.2-.5-.1-.7 0-.3.1-.5.5-.4.8 0 .2.2.4.3.7 0 .1 0 .1-.1.1-.2.1-.4.1-.5-.1zM3.2 25.3c0-1.9 1.1-3.3 2.9-3.3 1.3 0 2.1.7 2.3 1.8.1.9 0 1.4-1.1 1.4l-3.6.2c.1 2.5 1.7 3.3 3.7 3.3h1.3v-.6H7.4c-1.8-.1-2.9-.8-2.9-2.2l3.4-.2c.7 0 1.2-.4 1.2-1.2 0-1.6-.9-3.1-2.9-3.1-1.9 0-3.5 1.4-3.5 3.9 0 1.4.5 2.7 1.4 3.5h1.1c-1.3-.5-2-1.7-2-3.5zm8.3-1.6v5.1h.8V24c.4-.5 1.2-.9 1.7-.9.7 0 1 .3 1 1.1v4.6h.7v-4.7c0-1-.5-1.6-1.7-1.6-.7 0-1.5.4-2.5 1.2z" fill="#727272"/><path d="M11 23.5c1-.9 2-1.4 3.1-1.4 1.3 0 2.1.7 2.1 2v4.7h.7v-4.7c0-1.5-.7-2.6-2.7-2.6-1.2 0-2.6.6-4 1.8v5.5h.8v-5.3zm8.4-1.1l.5-.1v6.6h.7v-7.1c0-.2-.1-.3-.4-.2l-1.5.4v6.9h.7v-6.5zm.3-2.5c.5 0 1-.4 1-1 0-.5-.4-1-1-1-.5 0-1 .4-1 1 0 .5.4 1 1 1zM7.3 24c0 .2-.1.4-.5.4l-2.3.1c.1-.8.6-1.5 1.5-1.5 1 .1 1.3.6 1.3 1zm.6 0c-.1-1-.7-1.5-1.8-1.5-1.3 0-2.2 1-2.4 2.7l3.5-.2c.7-.1.8-.3.7-1z" fill="#727272"/></g><defs><clipPath id="clip0"/></defs></svg>