<svg width="112" height="23" fill="none" xmlns="http://www.w3.org/2000/svg"><g clip-path="url(#clip0)"><path d="M29.9 5.5V17l2.7-.1v-6.2l2.9 6.3h2.8l2.8-6.4V17h2.6V5.5h-3l-3.9 8.2-3.9-8.2h-3zM44.8 17h3l1-2.3h6l1 2.3h2.9L53.5 5.5h-3.7l-5 11.5zm4.9-4.4l2-4.7 2.1 4.7h-4.1zM60 5.5h11v2.4h-8.3v2.2h7.1v2.3h-7.1v2.3H71V17H60V5.5zm27.5 0h8.2c1 0 1.7.6 1.7 1.3v2h-2.7v-1h-5.6v2.3h6.1c1.6 0 2.2.5 2.3 1.7v3.6c0 1-1 1.7-2.1 1.7h-7.1c-1.3 0-1.8-.6-1.8-1.5v-1.8h2.7v.9h5.6v-2.3h-6.9c-.9 0-1.4-.7-1.4-1.6V6.9c-.1-.7.1-1.4 1-1.4zm12.5 0h2.7v4.7l5.1-4.8 3.9.1-6.1 5.3 6.3 6.2H108l-5.2-5-.1-.1V17H100V5.5zM84.4 7.1v4.4c-.1 1.3-1.2 1.5-2.2 1.5l2.4 4h-3.3L79 13h-3.1v4h-2.7V5.4h8.9c1.2.1 2.2.5 2.3 1.7zm-2.7 3.6V7.8h-5.9v2.9h5.9z" fill="#B3B3B3"/><path d="M22.2 2.1v18.2c0 1.2-1 2.1-2.1 2.1h-18c-1.2 0-2.1-1-2.1-2.1V2.1C0 .9 1 0 2.1 0h18c1.2 0 2.1 1 2.1 2.1z" fill="#CCC"/><path d="M11.1 2.5l1.4 6.2 5.8-2.8-3.9 5 5.6 2.9h-6.3l1.4 6.2-4-4.9-4 4.9 1.4-6.2H2.2l5.6-2.9-3.9-5 5.7 2.8 1.5-6.2z" fill="#fff"/></g><defs><clipPath id="clip0"/></defs></svg>