<svg width="81" height="23" fill="none" xmlns="http://www.w3.org/2000/svg"><g clip-path="url(#clip0)"><path d="M43.6 9.7c-1.8 0-3.1.4-4 1.1-.9.7-1.4 1.7-1.4 3s.5 2.3 1.4 3c.9.7 2.3 1.1 4 1.1 1.7 0 3.1-.4 4-1.1.9-.7 1.4-1.7 1.4-3s-.5-2.3-1.4-3c-1-.8-2.3-1.1-4-1.1zm0 6.2c-1.9 0-2.9-.7-2.9-2.2 0-1.5 1-2.2 2.9-2.2s2.9.7 2.9 2.2c-.1 1.5-1 2.2-2.9 2.2zm15.6-6h-9.5v1.7H53V17c0 .5.5.7 1.4.7 1 0 1.5-.2 1.5-.7v-5.4h3.3V9.9zm12.6.5v3.7c0 1.4.5 2.4 1.4 2.9.7.4 2.4.6 5.1.6h2.4v-1.8h-4c-.8 0-1.3-.1-1.6-.4-.3-.2-.4-.6-.4-1.2v-3.8c0-.5-.5-.7-1.4-.7-.9 0-1.5.3-1.5.7zm-40-1v5.8c0 .7.3 1.3.8 1.7.6.4 1.3.7 2.3.8V9.4h4.4V7.5H27.8v1.9h4zm29.5 3.3c-1.4 1.7-2.2 3.3-2.5 4.7l-.1.3h2.6v-.2c.1-.5.3-1 .5-1.4h5.6c.2.5.4 1 .5 1.4v.2h2.6l-.1-.3c-.3-1.4-1.1-2.9-2.5-4.7-1-1.3-1.8-2.2-2.5-2.7-.2-.1-.5-.2-.8-.2-.4 0-.7.1-.8.2-.6.4-1.4 1.3-2.5 2.7zm1.5 1.6c.6-.9 1.2-1.6 1.9-2.3.7.7 1.4 1.5 1.9 2.3h-3.8z" fill="#A2A2A2"/><path d="M21 12.7c-.8.9-2.1 1.7-3.9 2.2-1.8.5-3.6.7-5.4.6-1.1-.1-2.5-.4-4.1-.8-1.7-.5-3-1.1-4-1.7 2.2 2.1 4.7 3.6 7.4 4.4 1.7.5 3.3.7 4.9.7 1.6 0 2.9-.3 3.9-.8.7-.5 1.2-1.1 1.4-2 .2-.8.1-1.6-.2-2.5v-.1z" fill="#C9C9C9"/><path d="M19.6 11c-.4 2-1.1 3.9-2.2 5.8-1.1 1.8-2.2 3.2-3.5 4.2-1.2.9-2.4 1.5-3.6 1.8-1.2.2-2.3.3-3.4.1-1-.2-1.9-.6-2.6-1.2-.8-.6-1.3-1.3-1.5-2.1.5.7 1.2 1.2 2 1.5.9.3 1.7.2 2.6-.1 2.1-.8 3.9-3 5.5-6.4.6-1.3 1.1-2.6 1.5-4.1.3-1.2.6-2.3.6-3.1.2-2.5-.1-4.3-1-5.4C12.8.7 11.1.4 9 1c.8-.7 2-1 3.4-1 1.5 0 2.8.3 4 1 1.6.9 2.6 2.3 3.2 4.2.4 1.7.4 3.6 0 5.8z" fill="#8A8A8A"/><path d="M12.1 8.2c-2.2-.7-4.3-1-6.5-.7-1.9.2-3.4.7-4.3 1.5-.8.9-.7 2 .1 3.3.1.2.3.4.6.7.6-1.3 2.2-2.5 4.8-3.5 1-.4 2.1-.7 3.1-1 .9-.2 1.7-.3 2.2-.3z" fill="#C9C9C9"/><path d="M.4 14.9c.3 1.1 1 2.2 1.9 3.1.9.9 1.9 1.7 3.2 2.3 1.2.6 2.5 1 3.8 1.2 1.4.2 2.7.3 4 .1 1.4-.2 2.8-.7 4-1.4.7-.4 1.4-1 2.2-1.6-1.5.4-3.1.6-4.7.5-2.2-.1-4.3-.6-6.4-1.4-2.6-1-4.7-2.5-6.4-4.5l-.1-.1c-.3-.3-.5-.6-.6-.7C.5 11 .5 9.9 1.3 9l-.5.5c-.5.6-.8 1.4-.8 2.4 0 .9.1 1.9.4 3z" fill="#AEAEAE"/><path d="M22.5 10.3c-.2-1.4-.6-2.6-1.4-3.8-.9-1.3-2-2.3-3.5-3.1-1.5-.8-3.3-1.4-5.2-1.6C9.7 1.5 7.3 2 5 3.1c-.9.5-1.7 1.1-2.5 2C1.7 6 1 7 .5 8.2c.4-.6.9-1.1 1.5-1.5.7-.4 1.6-.7 2.8-.8 1.3-.1 2.7-.1 4.2.1 1.6.2 3.2.6 4.8 1.1 2 .7 3.7 1.7 5.1 2.8 1.1.9 1.8 1.8 2.1 2.8l.1.1c.3.9.4 1.7.2 2.5s-.7 1.5-1.4 2l.4-.2c.1-.1.3-.2.4-.3l.2-.2c.6-.7 1.1-1.5 1.4-2.7.3-1.2.4-2.4.2-3.6z" fill="#A2A2A2"/></g><defs><clipPath id="clip0"/></defs></svg>