<svg width="70" height="42" fill="none" xmlns="http://www.w3.org/2000/svg"><g clip-path="url(#clip0)" fill="#fff"><path fill-rule="evenodd" clip-rule="evenodd" d="M21.5 32.1l-1.1 9.1H0l.7-5.8c9-2.7 15.4-3.5 20.8-3.3zm.7 9h20.1L43 35v-.2c-7.4-.4-12.7-2.2-19.7-2.6l-1.1 8.9zm22.6-6.3v.2l-.8 6.1h20.4l1.1-9.3c-8.8 2.4-15.3 3.1-20.7 3z"/><path d="M5.1 0L.9 33.5c33.2-9.1 33 5.9 64.9-3.5l3.7-30H5.1zm15 25.6c-1.7 1.5-4.1 2.3-7.2 2.3-1.1 0-2.2-.1-3.2-.4-1-.3-1.9-.6-2.6-1-.7-.4-1.3-.8-1.8-1.1-.5-.4-.9-.7-1.1-1l-.4-.4L8 20.5l.2.2c.1.1.3.3.7.5.3.3.7.5 1.1.7.4.2.8.4 1.4.5.5.2 1.1.2 1.6.2.8 0 1.5-.2 2.1-.5.6-.4.9-.9.9-1.7 0-.4-.3-.9-.9-1.3-.6-.4-1.3-.8-2.2-1.2-.8-.4-1.7-.8-2.5-1.3s-1.6-1.2-2.2-2c-.6-.8-.9-1.8-.9-2.9C7.2 9.8 8 8 9.7 6.5s4-2.2 6.9-2.2c1 0 2 .1 2.9.3.9.2 1.7.5 2.2.8.6.3 1.1.6 1.5.9.4.3.7.6.9.8l.3.3-4 3.6-.5-.5c-.2-.2-.6-.4-1.3-.7-.6-.3-1.3-.4-2-.4-.8 0-1.4.2-1.9.5-.5.4-.7.8-.7 1.3 0 .4.3.9.9 1.3.6.4 1.3.8 2.2 1.1.9.4 1.7.8 2.5 1.3s1.6 1.1 2.1 2c.6.8.9 1.8.9 2.9.1 2.3-.8 4.3-2.5 5.8zm23.8-1.7c-.2.2-.6.6-1.3 1.1-.7.5-1.3 1-2.1 1.4-.7.4-1.7.8-2.8 1.1-1.2.3-2.4.5-3.6.5-3 0-5.6-1-7.6-3.1-2-2-3-4.4-3-7.2 0-3.7 1.4-6.8 4.2-9.5 2.8-2.7 6.2-4 10.2-4 1.2 0 2.3.2 3.4.5s2 .7 2.7 1.1c.7.4 1.3.9 1.8 1.3s.9.8 1.1 1.1l.4.5-4.3 3.6c0-.1-.1-.2-.2-.3-.1-.1-.3-.3-.6-.7-.3-.3-.7-.6-1.1-.8-.4-.2-.9-.5-1.6-.6-.6-.2-1.3-.3-2-.3-2.1 0-3.9.7-5.4 2.2-1.5 1.5-2.3 3.3-2.3 5.4 0 1.5.5 2.7 1.5 3.7s2.3 1.5 3.8 1.5c.7 0 1.4-.1 2.2-.3.7-.2 1.3-.5 1.8-.8.5-.3.9-.6 1.3-.9.4-.3.7-.6.9-.8l.3-.3 2.8 4.1-.5.5zm12-11.5c.6.4 1.3.8 2.2 1.1.9.4 1.7.8 2.5 1.3s1.6 1.1 2.1 2c.6.8.9 1.8.9 2.9 0 2.4-.9 4.4-2.6 5.9-1.7 1.5-4.1 2.3-7.2 2.3-1.1 0-2.2-.1-3.2-.4-1-.3-1.9-.6-2.6-1-.7-.4-1.3-.8-1.8-1.1-.5-.4-.9-.7-1.1-1l-.3-.4 4.1-3.6.2.2c.1.1.3.3.7.5.3.3.7.5 1.1.7.4.2.8.4 1.4.5.5.2 1.1.2 1.6.2.8 0 1.5-.2 2.1-.5.6-.4.9-.9.9-1.7 0-.4-.3-.9-.9-1.3-.6-.4-1.3-.8-2.2-1.2-.8-.4-1.7-.8-2.5-1.3s-1.6-1.2-2.2-2c-.6-.8-.9-1.8-.9-2.9 0-2.1.8-3.9 2.5-5.4 1.7-1.5 4-2.2 6.9-2.2 1 0 2 .1 2.9.3.9.2 1.7.5 2.2.8.6.3 1.1.6 1.5.9.5.5.8.8.9 1l.3.3-4.1 3.5-.5-.5c-.2-.2-.6-.4-1.3-.7-.6-.3-1.3-.4-2-.4-.8 0-1.4.2-1.9.5-.5.4-.7.8-.7 1.3.1.6.4 1 1 1.4z"/></g><defs><clipPath id="clip0"><path fill="#fff" d="M0 0h69.5v41.1H0z"/></clipPath></defs></svg>